<?xml version="1.0" encoding="UTF-8"?>
<svg width="467.81" height="484.69" version="1.1" viewBox="0 0 467.8125 484.6875" xmlns="http://www.w3.org/2000/svg">
 <path d="m166.17 484c-10.08-0.27162-11.493-0.50651-11.556-1.9212-1.0154-23.007-0.54474-23.721 18.083-27.425 15.413-3.0653 15.414-3.0204-0.37955-15.176-6.2065-4.7768-27.717-24.694-37.789-34.99-8.412-8.5992-26.453-30.438-33.75-40.855-24.735-35.31-30.682-48.88-47.323-107.96-6.629-23.54-9.616-28.7-26.722-46.17-20.514-20.94-26.319-32.36-26.083-51.29 0.28562-22.98 17.606-30.03 20.465-8.32 2.5562 19.403 7.5743 28.147 19.664 34.264 9.524 4.8189 8.6093 5.8453 14.561-16.339 9.4384-35.179 29.648-53.796 71.22-65.61 30.426-8.6462 41.225-19.752 44.225-45.484 1.1076-9.4996 0.46512-27.503-1.1451-32.09l-1.0629-3.0277-18.821-0.25352-18.821-0.25352-0.34985-2.6171c-0.38672-2.8929 3.379-10.634 6.6445-13.658 1.89-1.7506 3.9443-1.8659 42.299-2.3747 22.18-0.2953 57.83-0.86 79.23-1.2561 21.4-0.39607 44.94-0.72015 52.31-0.72015h13.408l2.0005 3.4978c2.238 3.9131 1.6659 5.6222-1.0572 3.1579-1.3778-1.2469-1.8856-1.3344-2.2323-0.38488-0.33628 0.921-0.73305 0.96256-1.5825 0.16575-2.7613-2.59-5.5556 0.10471-3.7013 3.5695 0.62938 1.176 0.68914 2.2492 0.15499 2.7834-0.53416 0.53416-1.4675-0.65323-2.4205-3.0795-0.85314-2.1719-1.7283-3.7685-1.9448-3.5481-0.60283 0.61363 0.5273 9.2438 1.1941 9.1189 0.32209-0.06032 1.3239 0.21338 2.2262 0.60822 0.90235 0.39484 2.3789 0.40905 3.2812 0.03158 0.90235-0.37747 3.6445-0.60226 6.0938-0.49955 4.4177 0.18527 6.7046-3.1376 3.5156-5.1085-0.51563-0.31867-0.95033 0.18377-0.96601 1.1165-0.0272 1.6155-0.0762 1.6138-1.0346-0.03503-0.72054-1.2396-0.71344-2.0237 0.025-2.7621 1.3786-1.3786 3.7804 1.7699 3.8208 5.0087 0.0544 4.3624-1.0722 4.6406-18.79 4.6406-9.1137 0-17.889 0.26367-19.5 0.58594l-2.9297 0.58594 4e-3 12.305c0.0132 43.024 8.1427 52.859 57.902 70.05 32.457 11.214 61.709 41.197 65.132 66.761 0.18074 1.3496 0.62582 2.751 0.98906 3.1143 0.36324 0.36325 0.6628 1.3284 0.66568 2.1448 0.0314 8.9142 3.4426 10.083 12.978 4.448 9.3888-5.5485 12.284-10.725 16.08-28.751 3.0511-14.487 6.689-20.619 12.233-20.619 20.643 0 11.369 45.172-15.227 74.168-13.419 14.63-18.589 23.123-22.206 36.479-2.4237 8.9509-6.8825 25.926-9.9671 37.946-9.9404 38.735-22.818 66.318-44.032 94.312-17.477 23.063-49.464 56.609-65.443 68.632-11.871 8.9321-11.081 9.7802 11.985 12.868 4.125 0.55221 8.1663 1.1988 8.9806 1.4369 1.2882 0.37664 4.4146 25.294 3.312 26.397-0.49914 0.49914-69.602 1.8087-105.53 2-20.344 0.10828-37.851 0.30954-38.906 0.44725-1.0548 0.13771-7.0858 0.11113-13.402-0.0591zm119.77-26.5c18.136-0.53803 13.385-0.61681-19.688-0.32643-67.882 0.59603-101.47 1.1744-102.05 1.7572-0.6279 0.6279 87.103-0.40312 121.74-1.4307zm-63.228-4.1744c43.99-0.74606 65.39-1.4164 65.996-2.0672 0.47827-0.51388-13.868-0.28458-76.672 1.2255-13.577 0.32646-24.144 0.9283-23.482 1.3374 0.66199 0.40913 1.4584 0.5864 1.7699 0.39391 0.31145-0.19249 14.886-0.59285 32.389-0.88969zm52.737-5.1878c7.8937-7e-3 14.127-0.37496 13.853-0.81944-0.27471-0.44449-3.991-0.68447-8.2584-0.53329-4.2674 0.15117-26.937 0.53275-50.377 0.84796-23.44 0.3152-42.846 0.82136-43.125 1.1248-0.27889 0.30345 16.157 0.29062 36.524-0.0285 20.367-0.31913 43.49-0.58532 51.383-0.59151zm90.157-94.29c5.4021-0.25267 10.254-0.92049 10.781-1.484 0.69366-0.74093-14.746-0.85144-55.759-0.39911-47.509 0.52398-210.89 1.6423-221.07 1.5132-1.997-0.0253-2.8784 0.32273-2.4742 0.97687 0.62349 1.0088 245.83 0.45458 268.52-0.60697zm-191.35-2.85c0.19626-0.17062-0.33109-3.0488-1.1719-6.3961-0.8408-3.3472-1.5287-7.1593-1.5287-8.4713v-2.3854h11.279c12.887 0 12.043-0.63923 12.386 9.375l0.24091 7.0312-7.3673-0.17976c-8.6122-0.21014-7.7007 0.34813-8.5076-5.2109l-0.64632-4.4531h4.745c2.6097 0 4.7449 0.17644 4.7449 0.39207 0 0.21565 0.25607 1.0594 0.56905 1.875 0.40795 1.0631 0.01 1.4829-1.4062 1.4829-2.7943 0-2.4644 1.378 0.36912 1.5414 2.5638 0.14793 2.6112 0.0336 1.7571-4.2368-0.60571-3.0286-7.8637-4.3798-11.418-2.1257-1.8113 1.1488 0.5145 13.551 2.4052 12.825 0.72287-0.27739 4.8743-0.50435 9.2253-0.50435h7.911l-0.62803-8.9344-0.62804-8.9344 12.562 0.26256 12.562 0.26257 0.29521 4.685c0.16236 2.5767 0.0347 6.0739-0.28382 7.7715l-0.57903 3.0865-7.6832-0.27149-7.6832-0.27149-0.85608-4.0699c-0.9615-4.5711-0.0948-5.7343 4.2916-5.7595 5.3138-0.0305 8.0759 4.0403 3.3579 4.949-1.4946 0.28786-1.204 0.44349 0.99689 0.53395 2.9613 0.12171 3.0926-0.0145 2.8125-2.9192l-0.29377-3.0469-5.9985-0.28272c-7.439-0.35062-7.7467-0.0355-6.9945 7.1615l0.61021 5.8381 9.9414-0.26471 9.9414-0.2647 0.0485-7.7047c0.0266-4.2376 0.34307-7.9993 0.70312-8.3594 0.36007-0.36006 0.65466 2.9767 0.65466 7.415 0 11.122 1.7313 11.522 2.0738 0.47926l0.27-8.7052 11.582-0.26401 11.582-0.26402-0.3318 7.9985c-0.41942 10.111 0.73009 10.469 1.5998 0.49825 0.35984-4.125 1.0715-7.5 1.5816-7.5 0.59077 0 0.68642 2.8921 0.26354 7.9688l-0.6638 7.9688h20.61l0.65952-5.6825c0.80081-6.8998 0.8931-6.7977-6.5763-7.2734-6.376-0.40599-9.2159 1.7725-7.6455 5.8648 0.6204 1.6167 6.2464 2.0928 6.2464 0.52853 0-0.51563-1.0856-0.9375-2.4125-0.9375-5.5166 0-2.1693-3.2614 3.6582-3.5643l5.4463-0.28309-0.65363 4.5018c-0.35948 2.476-0.70503 4.5682-0.76787 4.6493-0.27137 0.35029-6.165 0.59306-11.232 0.46264l-5.4923-0.14137 0.41659-7.0337c0.51064-8.6214-0.96517-7.6959 12.912-8.0967l11.719-0.33842-0.0641 3.2812c-0.0353 1.8047-0.22782 5.6016-0.42788 8.4375l-0.36376 5.1562 9.4952 0.26636c10.587 0.29699 9.8407 0.78043 11.082-7.1792 0.77873-4.9951-0.0579-5.7091-6.7132-5.729-4.7791-0.0143-7.5073 3.3129-5.4483 6.6444 0.90697 1.4675 6.0342 0.98741 6.0342-0.56504 0-0.77344 0.42187-1.4062 0.9375-1.4062 0.51562 0 0.9375 0.64641 0.9375 1.4365 0 1.8837-3.0552 2.9556-7.0835 2.4854-3.4549-0.40335-3.742-1.1222-2.643-6.6171l0.58593-2.9297h7.8516c8.8775 0 8.5091-0.45799 7.0017 8.7053-0.70451 4.2826 0.21213 7.1944 1.1743 3.7302 3.3845-12.186 2.0767-14.277-8.941-14.296-9.3325-0.0164-8.7741-0.43847-9.6553 7.2963l-0.6727 5.9044 6.4254-0.27942 6.4254-0.27943 0.29377-3.0469c0.2624-2.7215 0.0371-3.0469-2.1094-3.0469-1.3217 0-2.4032 0.42187-2.4032 0.9375 0 0.51562-0.66375 0.9375-1.475 0.9375-4.0093 0-0.69411-3.2914 3.5928-3.567 4.4128-0.28369 4.4447-0.26471 4.4447 2.6398 0 5.7382-1.1421 6.5522-9.1926 6.5522h-7.2516l0.25795-5.8594c0.47541-10.799-0.41504-10.078 12.442-10.078h11.22l-0.2224 8.6719-0.22238 8.6719 2.5781-0.0937c1.418-0.0516 5.4731-0.15703 9.0113-0.23438l6.4332-0.14062 0.91234-5.6651c1.0191-6.3281 0.90247-6.5054-4.6105-7.01-4.6854-0.42887-6.3557 0.715-6.3557 4.3525 0 2.2526 0.38675 2.6977 2.3438 2.6977 2.8024 0 3.1172-1.4541 0.46488-2.1476-3.6851-0.96367-1.1403-3.606 3.1695-3.2911l3.8656 0.28248-0.32534 3.75c-0.4513 5.2018-0.37966 5.1562-8.1122 5.1562-8.2158 0-8.1618 0.0608-7.3829-8.3192 0.71362-7.6782 4e-3 -7.3384 14.295-6.8482l8.7876 0.30142-0.65481 8.3705c-0.40889 5.2268-0.31367 8.3704 0.25355 8.3704 0.49959 0 1.2089-3.7969 1.5762-8.4375l0.6678-8.4375h16.791l-0.64446 4.4531c-0.35445 2.4492-0.9297 4.875-1.2783 5.3906-0.34864 0.51562-0.39816 2.4141-0.11007 4.2188 0.67209 4.21 1.515 2.8002 2.3252-3.8888 0.94286-7.7845 2.5348-12.215 1.9714-5.4862-0.23745 2.8359-0.71404 6.7383-1.0591 8.6719l-0.62735 3.5156h19.551l1.9903-7.5584c2.3369-8.8749 2.6219-8.575-7.7777-8.1868l-7.4098 0.27653-1.285 5.973c-1.5422 7.1686-1.1878 7.5852 6.4726 7.6064 5.6545 0.0156 7.454-2.1023 7.454-8.7731 0-3.5985-9.6314-3.4888-10.143 0.11555-0.24574 1.7303 0.14502 2.1094 2.1746 2.1094 2.7262 0 3.1738 3.6436 0.55373 4.5076-0.90769 0.29935-1.137-0.0444-0.73254-1.0984 0.37683-0.98201 0.10377-1.5342-0.75869-1.5342-0.81253 0-1.1332 0.55823-0.80778 1.4062 0.37974 0.98955-0.0766 1.4062-1.54 1.4062-1.8889 0-2.0225-0.32243-1.4566-3.5156 1.27-7.166 0.93859-6.9034 8.3332-6.602 7.6185 0.31049 7.7714 0.59944 4.7346 8.9458l-1.4497 3.9844-6.7193-0.0143c-9.1563-0.0196-9.1695-0.0334-7.8896-8.3019 1.3269-8.5724 0.90097-8.3897 19.52-8.3733 8.8332 7e-3 12.919 0.2715 10.496 0.67748-4.3269 0.72503-4.1985 0.64956-5.71 3.3558-0.99768 1.7862-1.0486 1.7663-1.0758-0.42188-0.0489-3.9392-1.6574-0.93403-3.6129 6.75l-1.849 7.2656h4.123c2.2676 0 4.123-0.42188 4.123-0.9375 0-0.51563-1.2656-0.9375-2.8125-0.9375-2.0221 0-2.8125-0.44792-2.8125-1.5938 0-1.2396 0.25-1.3438 1.125-0.46875 2.2814 2.2814 6.4509 1.3555 7.5995-1.6875 0.58388-1.5469 1.391-2.8125 1.7936-2.8125 0.40258 0 0.73196-0.42188 0.73196-0.9375 0-0.51563-0.84375-0.9375-1.875-0.9375s-1.875-0.42188-1.875-0.9375c0-0.51563 1.0547-0.9375 2.3438-0.9375s2.3438-0.47708 2.3438-1.0602c0-0.68804-1.1517-0.87327-3.2812-0.52769-1.8047 0.29285-3.2812 0.13712-3.2812-0.34609s1.8984-0.87856 4.2188-0.87856c3.125 0 4.2188-0.36458 4.2188-1.4062 0-0.77344 0.44677-1.4062 0.99283-1.4062s0.74147-0.40671 0.43425-0.9038c-0.34804-0.56313-12.295-0.76101-31.696-0.525-50.785 0.61782-94.472 0.75019-94.935 0.28767-0.6738-0.6738 48.011-1.6602 85.829-1.739 28.586-0.0596 45.953-0.8051 41.719-1.7909-1.7948-0.41787-67.748-0.10871-104.53 0.48999-20.367 0.33152-74.031 0.68454-119.25 0.78451-45.221 0.1-82.522 0.48321-82.891 0.85167-0.36845 0.36845 11.74 0.6992 26.908 0.73499 15.168 0.0358 35.172 0.25428 44.453 0.48551 9.2812 0.23124 26.121 0.41289 37.422 0.40367 11.301-9e-3 20.317 0.21281 20.037 0.49341-0.28059 0.28059-29.038 0.48443-63.906 0.45299-42.375-0.0382-63.396 0.25889-63.396 0.89607 0 0.61495 6.8078 0.95326 19.183 0.95326h19.183l1.0336 3.9844c0.56851 2.1914 1.4262 5.4609 1.9059 7.2656 1.5214 5.7234 1.5112 5.7329-5.8278 5.4317l-6.7106-0.27545-1.6447-4.8479c-1.9064-5.6194-1.7492-5.9334 2.9714-5.9334 3.8455 0 6.146 3.1281 3.5229 4.7902-0.99122 0.62807-0.90985 0.80928 0.36842 0.82047 1.7336 0.0152 1.9726-0.99523 1.0497-4.4388-0.49745-1.8563-1.1709-2.1094-5.6122-2.1094-5.8715 0-5.9658 0.24448-3.0418 7.8853l2.0051 5.2397h7.8386c4.3112 0 7.8264-0.31641 7.8113-0.70313-0.015-0.38671-0.84648-3.6562-1.8477-7.2656-2.906-10.476-3.4418-9.8438 8.3434-9.8438h10.218l1.5442 7.2656c1.6867 7.9361 3.1578 12.182 3.268 9.4332 0.0659-1.6434-2.3403-12.668-3.3249-15.234-0.49136-1.2805 0.91686-1.4652 11.171-1.4652h11.733l1.344 7.2656c1.687 9.1198 2.0652 8.6719-7.3211 8.6719-7.1126 0-7.9134-0.17789-7.9134-1.7578 0-0.9668-0.26877-3.1017-0.59726-4.7441l-0.59727-2.9863 4.5732 0.29099c4.3902 0.27935 7.8205 3.5722 3.7213 3.5722-0.81124 0-1.475 0.36338-1.475 0.8075s0.99373 0.61753 2.2083 0.38535c5.2707-1.0076 1.7822-6.3083-4.3637-6.6306-6.4456-0.33806-6.8977 0.31847-5.1066 7.4157l1.2753 5.0533 5.1027 0.47887c4.8096 0.45136 13.114 0.11086 13.897-0.56982zm190.09-7.1747c0.52741-3.4252 0.4663-3.5156-2.3755-3.5156-1.6043 0-2.9168-0.42188-2.9168-0.9375 0-0.51563 1.6875-0.9375 3.75-0.9375 4.2203 0 4.667 1.1667 2.3332 6.0938l-1.3322 2.8125zm12.668-0.70312c0-1.2891 0.2128-1.8164 0.47287-1.1719 0.26007 0.64454 0.26007 1.6992 0 2.3438-0.26007 0.64454-0.47287 0.11719-0.47287-1.1719zm-164.11-11.67c0.7708-0.77079 43.96-1.1082 43.96-0.34341 0 0.417-9.9844 0.75818-22.188 0.75818-12.203 0-22.001-0.18665-21.773-0.41477zm-36.587 14.432c-1.857-8.6587-2.0746-8.3922 6.8531-8.3922 8.675 0 9.0066 0.22903 9.0066 6.2218v3.2559l-4.4531-0.28574c-4.7486-0.3047-6.4772-2.8108-2.3438-3.3978 1.1602-0.16476 2.1094-0.74132 2.1094-1.2812 0-0.5605-0.90498-0.73912-2.1094-0.41636-1.1602 0.31092-2.4525 0.57106-2.8719 0.5781-4.9114 0.0824 0.47883 6.1377 5.6844 6.3857l5.8594 0.27911v-3.6548c0-2.0102-0.46314-4.9834-1.0292-6.6072l-1.0292-2.9524h-18.567l6e-3 2.5781c3e-3 1.418 0.38381 4.0547 0.84652 5.8594 0.4627 1.8047 1.1452 4.5469 1.5166 6.0938 1.1309 4.7098 1.609 0.80432 0.52201-4.2641zm-76.01 4.73c2.2968-0.73555 2.2874-0.75218-0.46875-0.8297-1.5469-0.0435-3.4453 0.32986-4.2188 0.8297-1.7765 1.1481 1.1026 1.1481 4.6875 0zm31.875 0.43482c0-4.412-5.5259-19.749-5.6456-15.669-0.0552 1.8825 4.2959 16.172 4.9244 16.172 0.39669 0 0.72125-0.2262 0.72125-0.50268zm11.466-2.1988c-0.21807-1.4858 0.0659-2.9873 0.63112-3.3366 1.7565-1.0856 1.1298-4.1556-1.0818-5.2993-1.1602-0.59995-2.984-2.1534-4.053-3.4521-1.813-2.2026-2.0335-2.253-3.2812-0.74998-0.73571 0.88625-2.0493 2.3983-2.9192 3.36-1.7876 1.9765-0.48788 7.4919 1.7654 7.4919 0.64851 0 1.8702 1.0547 2.7148 2.3438 2.3423 3.5748 6.7637 3.3207 6.2238-0.35773zm-5.3246-2.2981c-0.56548-1.9787-1.2059-2.5389-2.5119-2.1974-2.1295 0.55686-3.2494-0.82621-1.2807-1.5817 0.77048-0.29566 1.4009-1.3946 1.4009-2.442 0-2.4489 1.5696-2.4686 2.3438-0.0294 0.41688 1.3135 1.4185 1.875 3.3444 1.875 3.3278 0 3.632 1.4502 0.47057 2.2437-1.3883 0.34844-2.4212 1.3956-2.6434 2.6798-0.33786 1.953-0.4204 1.9127-1.1236-0.54796zm13.877-1.8938c-1.7603-7.7171-1.8298-7.6379 6.703-7.6379 8.0514 0 7.6092-0.28194 8.4536 5.3906l0.6629 4.4531h-4.794c-5.1432 0-6.8318-2.4699-3.1533-4.6124 1.2843-0.74803 1.3352-0.95865 0.23438-0.96973-2.7765-0.0279-3.7235 1.3251-2.9492 4.2136 0.69964 2.61 1.0316 2.7782 5.5917 2.8331 7.0462 0.0848 7.4028-0.33594 5.7662-6.8032l-1.3774-5.4427-8.352-0.27305c-9.9385-0.32491-12.448 5.4194-6.5425 14.975 1.2171 1.9693 1.1356-0.0809-0.24339-6.1266zm48.81 3e-3 -0.62443-6.8908 2.6947-0.46296c1.4821-0.25464 5.4369-0.21239 8.7884 0.0939l6.0938 0.55684v8.4376l-4.9219 0.28337c-4.4307 0.25509-4.9219 0.0914-4.9219-1.6406 0-1.4273 0.60511-1.924 2.3438-1.924 1.2891 0 2.3438-0.42188 2.3438-0.9375 0-1.0429-2.7939-1.2455-5.0796-0.36845-1.5358 0.58932-1.9704 3.7946-0.76545 5.6448 0.46269 0.71046 2.689 0.86432 6.7825 0.46875l6.0938-0.58886v-11.25l-10.685-0.26637-10.685-0.26637 0.53183 7.032c0.49596 6.5576 1.0826 8.9695 2.1818 8.9695 0.24887 0 0.17152-3.1008-0.17191-6.8908zm42.896 4.565c0.58282-1.2792 1.8394-2.5732 2.7924-2.8757 2.5662-0.81446 2.1056-3.5314-1.0798-6.3696-1.5469-1.3783-2.8125-2.9246-2.8125-3.4362 0-2.3164-6.2729-0.85994-9.6605 2.243-4.0739 3.7316-4.3326 5.4203-1.0954 7.1527 1.303 0.69733 2.6143 2.2452 2.9141 3.4397 0.82285 3.2785 7.4296 3.1648 8.9417-0.15393zm-6.578-2.6591c-0.86585-2.1061-1.4879-2.5135-3.071-2.011-1.4343 0.45523-1.869 0.27759-1.5665-0.64019 0.2303-0.69864 1.2919-1.3994 2.3591-1.5573 1.0672-0.15788 2.1548-1.1071 2.4169-2.1094 0.62555-2.3922 2.5271-2.3526 2.5271 0.0525 0 1.4583 0.625 1.875 2.8125 1.875 1.5469 0 2.8125 0.42187 2.8125 0.9375 0 0.51562-0.94922 0.94396-2.1094 0.95185-2.7755 0.0189-4.1406 0.97467-4.6659 3.2669-0.37963 1.6567-0.55604 1.5676-1.5154-0.76607zm-131.81-2.49c-2.0112-6.3437-3.3458-9.0153-3.3458-6.6978 0 0.61812 0.56375 2.4814 1.2528 4.1406 2.4195 5.8264 2.6395 7.9984 0.85719 8.4642-1.0527 0.27506-0.75279 0.46785 0.83624 0.5376l2.4774 0.10875-2.0778-6.5535zm172.11-1.3379c0.38718-7.7195-0.20818-8.0973-12.246-7.7705l-7.1166 0.19298-0.82543 4.8645c-1.2408 7.3124-0.73464 7.9326 6.2039 7.6024l5.8715-0.27942 0.29377-3.0469c0.28006-2.9046 0.14879-3.0409-2.8125-2.9192-2.2009 0.0905-2.4914 0.24609-0.9969 0.53395 4.5737 0.88093 2.5597 4.0259-2.5781 4.0259h-4.6875l0.0143-3.5156c0.023-5.6242 0.60448-5.9732 9.441-5.6654l7.8885 0.27478-0.32694 7.0312c-0.21832 4.6951-0.0149 6.7198 0.61223 6.0938 0.51654-0.51563 1.0856-3.8558 1.2644-7.4226zm65.482 5.9159c0-1.389 0.42632-1.8117 1.4362-1.4242 1.4884 0.57115 1.0442-8.6042-0.47085-9.7255-0.34833-0.25781-0.90572-1.207-1.2386-2.1094-0.9634-2.6112-5.0299-2.1127-5.7366 0.70313-0.32355 1.2891-0.98725 2.3438-1.4749 2.3438-3.3697 0-2.7603 5.3198 1.2619 11.016 1.47 2.0816 6.223 1.468 6.223-0.80342zm-4.6875-3.181c0-1.8894-0.46507-2.3438-2.3991-2.3438-1.3606 0-2.1483-0.40579-1.8197-0.9375 0.31867-0.51563 1.6092-0.9375 2.8678-0.9375 1.816 0 2.2884-0.48386 2.2884-2.3438 0-1.2891 0.42187-2.3438 0.9375-2.3438 0.51562 0 0.9375 1.0547 0.9375 2.3438 0 1.4583 0.53125 2.3438 1.4062 2.3438 0.77344 0 1.4062 0.42187 1.4062 0.9375 0 0.51562-0.62478 0.9375-1.3884 0.9375-0.76361 0-1.6531 1.0547-1.9766 2.3438-0.32353 1.2891-0.96437 2.3438-1.4241 2.3438s-0.83587-1.0547-0.83587-2.3438zm-229.55 0.73318c-0.57888-1.4345-1.163-4.0847-1.2981-5.8894l-0.24554-3.2812 6.6272-0.27202 6.6272-0.27202 1.1231 4.8655c1.3112 5.6805 1.6405 5.1055-3.3618 5.8717-4.2189 0.64621-5.7531-1.9557-2.8594-4.8494 1.296-1.296-0.0362-1.4891-1.9424-0.28157-3.4449 2.1822 0.13766 6.1688 5.8133 6.469 2.9241 0.15464 5.3108-0.0562 5.3038-0.46875-7e-3 -0.41245-0.76932-3.2812-1.694-6.3749l-1.6813-5.625-8.1497-0.27087c-6.3354-0.21057-8.1497 0.01-8.1497 0.98984 0 2.0425 3.9122 13.025 4.4487 12.489 0.27013-0.27014 0.0175-1.6648-0.56138-3.0994zm219.08-3.6917c1.3504-8.6862 2.2752-7.8372-8.6567-7.9475-10.705-0.108-9.6568-0.75516-10.071 6.2185l-0.33373 5.625h5.625c5.592 0 5.6259-0.0165 5.7737-2.8125 0.0999-1.889 2e-3 -2.1199-0.29958-0.70313-0.39045 1.8372-1.0371 2.1094-5.0116 2.1094h-4.5634l0.48973-3.5156c0.85127-6.1109 0.61278-5.9524 8.517-5.66 5.7741 0.21362 7.2641 0.56053 7.1972 1.6756-0.0464 0.77344-0.36652 3.832-0.71132 6.7969-0.93063 8.0022 0.75076 6.5326 2.0441-1.7866zm-225.22 5.5223c0.72316-0.48391 0.47534-2.4315-0.83321-6.5482l-1.8625-5.8594-7.1355 0.18064-7.1355 0.18063 6.0578 0.338c6.7938 0.37907 8.0223 1.0397 8.7636 4.7124 0.28385 1.4064 0.8017 3.2954 1.1508 4.1977 0.50266 1.2993 0.13775 1.6406-1.754 1.6406-1.3138 0-2.6495 0.42187-2.9681 0.9375-0.66933 1.083 4.15 1.2685 5.7168 0.22002zm-4.0221-2.6243c3.0653-1.1763-0.20312-6.978-3.9189-6.9564-3.9258 0.0229-4.6865 0.99312-3.2965 4.2044l1.2174 2.8125 0.04228-2.5781c0.03415-2.0825 0.47359-2.5781 2.2857-2.5781 2.8779 0 3.9549 2.6404 1.7572 4.308-1.6908 1.2831-0.57529 1.7424 1.9128 0.78766zm9.5553-19.043c4.1054-0.57642 4.3964-0.75381 2.3438-1.4284-1.2891-0.42363-3.7429-1.4175-5.453-2.2086-2.8914-1.3376-3.2814-1.3099-5.5659 0.3957-5.2938 3.9524-2.8614 4.8612 8.6752 3.2414zm24.311-0.0123c0.28373-0.45909-1.0625-1.1276-2.9916-1.4856-1.9291-0.35798-4.278-1.3426-5.2198-2.188-1.655-1.4856-5.217 1.0727-5.298 3.8052-0.0297 1.0012 12.887 0.87544 13.509-0.13157zm38.04-0.11c0-0.55555-3.4375-0.9375-8.4375-0.9375s-8.4375 0.38195-8.4375 0.9375 3.4375 0.9375 8.4375 0.9375 8.4375-0.38195 8.4375-0.9375zm66.639 0c4.3239 0 7.4233-0.39143 7.4233-0.9375 0-0.51563-1.0096-0.9375-2.2434-0.9375-2.7138 0-3.6491-1.8842-1.7951-3.6162 1.1427-1.0674 1.4217-0.99417 1.8057 0.47399 0.3956 1.5128 2.3172 2.8697 6.686 4.7211 0.86766 0.3677 1.2188-1.2939 1.3525-6.4006l0.18063-6.8972 0.33762 6.0938c0.32429 5.8532 2.0972 10.501 2.128 5.5781 0.0104-1.6728 0.23672-1.9458 0.83269-1.0049 0.45008 0.71058 1.2874 1.0021 1.8606 0.64779 0.5945-0.36742 1.0423-0.0162 1.0423 0.81739 0 1.2099 1.3816 1.4616 8.0241 1.4616 5.1106 0 7.8137-0.34039 7.4447-0.9375-0.31867-0.51563-1.6228-0.9375-2.8979-0.9375-1.2752 0-3.887-0.69758-5.804-1.5502-1.917-0.85259-3.9811-1.4742-4.5868-1.3814-1.231 0.18869-2.0516-5.3279-2.6319-17.693-0.20568-4.3828-0.39908-8.2852-0.42977-8.6719-0.32818-4.1349-1.9726 0.9759-2.1114 6.5625l-0.18063 7.2656-0.34363-6.0938c-0.43212-7.6631 0.36738-12.188 2.1536-12.188 0.75007 0 1.3638-0.37989 1.3638-0.8442 0-1.0462-5.1986-0.5983-8.6922 0.74881-1.7889 0.68979-2.7745 1.8822-3.1635 3.8272-0.45652 2.2826-1.2629 3.0344-4.1984 3.9139-1.9983 0.59871-3.6653 1.3382-3.7043 1.6433-0.0391 0.3051-0.14451 5.3008-0.23437 11.102-0.1597 10.309-0.2117 10.547-2.3029 10.547-2.6926 1e-4 -8.6418 2.4412-8.6418 3.546 0 1.3881 1.2354 2.1654 2.6058 1.6395 0.71364-0.27386 4.638-0.49791 8.7208-0.49791zm10.613-16.875c0-7.9922 0.14379-11.262 0.31952-7.2656 0.17574 3.9961 0.17574 10.535 0 14.531-0.17573 3.9961-0.31952 0.72657-0.31952-7.2656zm-9.6043 3.75c0-1.2891 0.2128-1.8164 0.47287-1.1719 0.26007 0.64454 0.26007 1.6992 0 2.3438-0.26007 0.64454-0.47287 0.11719-0.47287-1.1719zm-121.82 11.25c1.9008 0 4.6138-4.104 4.0104-6.0665-0.3217-1.0463-1.0077-5.2773-1.5244-9.4023-2.1177-16.906-2.6083-18.354-2.2224-6.5625 0.22432 6.8532 0.0585 10.334-0.42429 8.9062-0.43589-1.2891-0.83825-4.4531-0.89413-7.0312-0.19288-8.8988-1.2116-14.659-2.5048-14.163-0.66518 0.25525-1.4143-0.0396-1.6647-0.65511-0.91724-2.2547-0.57251 15.595 0.4254 22.027 0.76107 4.9052 0.75281 6.8009-0.0318 7.2858-0.59686 0.36888-0.77938 1.4424-0.41749 2.4555 0.93609 2.6205 3.5311 5.4058 3.9278 4.2157 0.18506-0.55518 0.77917-1.0094 1.3203-1.0094zm-2.8242-9.3924c-0.62058-3.619-1.0849-8.7869-1.0317-11.484 0.0794-4.033 0.3225-3.2386 1.3679 4.4705 0.6992 5.1562 1.5075 10.324 1.7963 11.484 0.28875 1.1602 0.18095 2.1094-0.23954 2.1094-0.4205 0-1.2723-2.961-1.8929-6.5799zm3.5592 2.8299c0-2.0625 0.16662-3.75 0.37027-3.75 0.20367 0 0.53122 1.6875 0.72791 3.75s0.0301 3.75-0.37028 3.75c-0.40035 0-0.7279-1.6875-0.7279-3.75zm244.69 7.6001c2.7868-0.65791 2.9987-0.87791 1.4062-1.4599-1.0312-0.37689-2.7188-1.0837-3.75-1.5706-3.6594-1.7279-12.656 0.3459-12.656 2.9173 0 0.97805 10.985 1.0609 15 0.11316zm-136.91-1.4701c0.62532-0.75347 2.0481-1.6526 3.1617-1.998 6.42-1.9914 7.181-3.4792 7.181-14.04v-9.7799h2.3732c2.8661 0 4.2214-2.6641 1.9904-3.9126-1.8007-1.0077-1.9866-4.8187-0.64999-13.323 0.49561-3.1532 1.3542-10.585 1.9079-16.514 0.55376-5.9297 1.6134-15 2.3548-20.156 0.74136-5.1562 1.8178-13.594 2.3922-18.75 0.57432-5.1562 1.8126-14.438 2.7518-20.625 3.0602-20.162 2.9952-18.442 0.64924-17.193-1.1279 0.60036-4.0495 2.4635-6.4926 4.1402-8.7874 6.0312-21.339 6.1968-21.339 0.28158 0-0.96812-0.3375-1.7602-0.75-1.7602-1.6808 0-3.0008 2.4425-3.0146 5.5781-8e-3 1.8305-0.62584 5.8594-1.3729 8.9531-2.1067 8.7247-1.3481 25.579 2.384 52.969 0.52694 3.8672 0.84518 14.625 0.70722 23.906-0.30997 20.852-0.0672 21.207 12.124 17.727 2.4883-0.71026 2.8746 0.95219 0.46875 2.0173-0.90234 0.3995-3.9609 0.97197-6.7969 1.2722-3.7157 0.39333-5.1562 0.93868-5.1562 1.9521 0 0.77344 0.52734 1.3008 1.1719 1.1719 1.39-0.278 1.6018 3.2161 0.22281 3.6757-0.52199 0.174-1.2173 3.7951-1.5452 8.0469l-0.59612 7.7305h2.3679c1.3023 0 2.8795-0.61647 3.5049-1.3699zm0.35-10.83c0-3.8672 0.16547-5.4492 0.36774-3.5156 0.20226 1.9336 0.20226 5.0977 0 7.0312-0.20227 1.9336-0.36774 0.35157-0.36774-3.5156zm2.9306-19.453c4.3276-11.201 6.358-22.053 3.7183-19.873-0.90418 0.74658-1.4516 0.93555-1.2165 0.41993 0.23512-0.51563 1.4054-3.0469 2.6007-5.625 2.8374-6.1202 4.5198-13.315 5.2693-22.537 0.33366-4.1048 1.84-14.846 3.3475-23.87 1.5074-9.0234 3.1797-19.158 3.716-22.521 0.98263-6.1608 2.1926-9.2932 3.2004-8.2854 0.30027 0.30028 0.16217 1.5554-0.3069 2.7891-1.1987 3.1528-5.3673 28.472-7.6226 46.298-2.0328 16.067-3.1585 22.573-5.1906 30-0.70543 2.5781-1.9991 8.0625-2.8748 12.188-1.5245 7.1809-3.5706 12.656-4.7298 12.656-0.29974 0-0.25973-0.73828 0.0889-1.6406zm-4.1833-63.096c0-0.4888 0.34178-0.88873 0.75952-0.88873 3.0396 0 8.7275-8.709 13.717-21.003 0.81691-2.0128 1.7447-3.4002 2.0617-3.0831 0.79847 0.79846-4.8912 14.655-8.086 19.693-2.4355 3.8404-8.4525 7.6006-8.4525 5.2822zm0.23437-27.8c-1.1602-0.22346-2.1094-0.80686-2.1094-1.2964 0-0.48959 1.0338-0.6307 2.2973-0.31357 1.5302 0.38404 4.113-0.29941 7.7344-2.0466 2.9904-1.4427 5.8589-2.8175 6.3746-3.0549 0.51562-0.23749 0.30469 0.33785-0.46875 1.2785-1.1552 1.405-10.8 6.4044-11.511 5.967-0.11421-0.0702-1.1569-0.3105-2.317-0.53395zm17.619-4.1455c-0.0232-1.9238 0.56962-3.9077 1.3651-4.5679 1.7455-1.4486 1.7511-0.56691 0.027 4.2188l-1.351 3.75-0.0412-3.4008zm53.517 118.66c-0.62569-26.123-2.0981-70.459-2.4223-72.937-0.21232-1.623-0.63907-9.0681-0.94834-16.545-1.0486-25.35-3.9441-56.888-5.2999-57.726-0.44131-0.27275-0.59277 1.3188-0.33659 3.5368 3.9526 34.221 5.7088 65.067 6.676 117.26 0.41204 22.237 0.97103 34.37 1.5743 34.169 0.53813-0.17938 0.85956-3.4756 0.7569-7.762zm35.665 6.467c1.5978-1.446 1.7144-1.4418 1.7144 0.0623 0 5.7973 5.1673 0.91934 5.8706-5.542 1.0231-9.3983 1.4707-9.5669 1.5554-0.58594l0.0741 7.8516 3.0469-0.59898c1.6758-0.32944 3.8203-1.6478 4.7657-2.9297 1.127-1.5282 2.6319-2.3307 4.3707-2.3307 2.3492 0 2.7098-0.40131 3.1595-3.5156 2.2233-15.399 3.4819-87.587 1.7571-100.78-0.65842-5.0369-0.57447-6.3281 0.41144-6.3281 1.4146 0 1.6641-1.5014 0.38124-2.2943-0.47158-0.29146-1.0799 5e-5 -1.3518 0.6478-0.36788 0.87632-0.73652 0.80013-1.4405-0.29773-0.52033-0.81148-2.7597-2.0128-4.9763-2.6695-2.2166-0.65674-4.7628-1.5748-5.6581-2.0402-0.89539-0.46535-2.6884-0.84611-3.9844-0.84611s-2.3565-0.42188-2.3565-0.9375c0-1.1546 7.1922-1.2566 7.8996-0.11194 1.647 2.665 5.2254 1.6896 5.2254-1.4243 0-2.1761 0.43516-3.1512 1.4062-3.1512 0.77344 0 1.4062-0.45539 1.4062-1.012 0-0.62288-1.0188-0.78823-2.6496-0.43004-4.9782 1.0934-12.363-5.2726-7.8579-6.7742 0.70335-0.23445 0.75942-1.0806 0.17369-2.6211-0.4757-1.2512-1.0789-5.9692-1.3404-10.484-1.2573-21.71-1.5582-23.687-3.4519-22.673-1.09 0.58333-1.8018 2.0715-1.8894 3.9499-0.13582 2.9142-0.15356 2.9268-0.5364 0.38005-0.84712-5.6353-3.5726-2.6376-3.2604 3.5861 0.44334 8.8378 2.0619 24.041 2.9426 27.642l0.80275 3.2812 0.096-3.2031c0.0528-1.7617 0.35772-2.9414 0.67765-2.6214 0.83927 0.83927-0.55786 9.2312-1.4455 8.6826-0.40893-0.25273-1.0224-2.6867-1.3632-5.4088-0.62964-5.0283-3.39-32.491-3.3951-33.777-2e-3 -0.38671-0.63558-0.70312-1.409-0.70312-1.7144 0-1.7441 1.3901-0.29719 13.898 0.7615 6.5826 0.81205 9.8817 0.158 10.312-2.1513 1.4169-0.90288 11.297 1.7876 14.148 3.69 3.9096 9.1328 47.519 9.1328 73.175 0 8.0923-1.0166 4.7631-1.4296-4.6814-0.4815-11.012-2.2576-23.508-3.5755-25.156-0.76396-0.95567-0.59357-1.5836 0.68299-2.517 1.6399-1.1991 1.6405-1.4223 0.0168-6.2267-0.92626-2.7406-1.7194-6.8814-1.7624-9.2017-0.25096-13.519-0.52324-16.084-1.6666-15.7-0.76433 0.25658-1.1964 2.4844-1.2424 6.4062-0.13749 11.729-0.40868 14.919-1.2683 14.919-1.422 0-2.2822-10.162-1.1784-13.923 1.9367-6.5994 2.3154-14.509 0.7919-16.544-1.843-2.4617-3.1432-1.0924-1.6363 1.7233 1.0074 1.8824 0.82538 2.9708-1.2932 7.733-1.3561 3.0482-2.2142 4.3329-1.907 2.8548 1.6724-8.0457 1.6693-8.7169-0.0305-6.6875-1.5373 1.8354-1.5544 1.8255-0.80923-0.46875 0.41869-1.2891 0.78909-4.2105 0.82312-6.4921 0.0356-2.3917 0.54836-4.3104 1.2107-4.5312 2.176-0.72533 1.145-2.3196-1.209-1.8696-2.8893 0.55233-2.9909 0.15729-3.612-14.043-0.25329-5.7912-0.8002-11.065-1.2154-11.719-0.93907-1.4795-0.99104-1.7642-1.1351-6.2175-0.14177-4.3818-3.071-4.9214-5.7843-1.0655-2.7571 3.9182-3.4737 35.275-0.82544 36.116 3.5121 1.1147 4.8832-1.2209 4.2099-7.1717-0.3785-3.3456-0.23992-5.5754 0.36993-5.9523 0.63063-0.38975 1.0269 1.487 1.1216 5.312 0.0805 3.2531 0.25957 6.9694 0.39782 8.2585 0.13824 1.2891 0.41699 7.5914 0.61943 14.005 0.24795 7.8556 0.73006 11.782 1.4772 12.031 0.61 0.20333 1.1091-0.27337 1.1091-1.0594 0-0.78597 0.326-1.6305 0.72444-1.8768 0.39843-0.24624 0.72442 1.1971 0.72442 3.2074 0 2.1568-0.50568 3.8492-1.2336 4.1285-0.85394 0.32769-0.97094 0.9826-0.38015 2.1279 0.4694 0.91 0.59307 5.1957 0.2748 9.5237-0.31826 4.328-0.54607 9.6015-0.50625 11.719 0.0399 2.1173 0.15871 16.717 0.2642 32.443 0.16252 24.231 0.38488 28.339 1.4573 26.926 1.1666-1.5378 1.3126-1.5456 1.8672-0.10019 0.33093 0.86239 0.48629 1.6563 0.34525 1.7643-0.14104 0.10796-1.0638 0.63037-2.0506 1.1609-2.0846 1.1207-2.2799 12.263-0.31254 17.828 1.2333 3.4886 4.495 4.1456 7.4235 1.4953zm10.826-12.98c1.84-56.436 2.0087-59.105 1.5527-24.567-0.24367 18.457-0.78899 34.488-1.2118 35.625-0.43008 1.1566-0.58025-3.715-0.34086-11.058zm-14.736 9.4856c0-0.77343 0.42187-1.667 0.9375-1.9856 0.51562-0.31867 0.9375 0.0534 0.9375 0.82685 0 0.77343-0.42188 1.667-0.9375 1.9856-0.51563 0.31867-0.9375-0.0534-0.9375-0.82685zm1.0115-4.8763c0.045-1.0921 0.26713-1.3143 0.5664-0.56641 0.27081 0.67675 0.23751 1.4854-0.074 1.7969-0.31152 0.31152-0.5331-0.2422-0.4924-1.2305zm24.917-15.112c0.4064-43.428 0.39511-66.478-0.0376-76.685-0.37278-8.7947-0.25333-10.636 0.5473-8.4375 1.1488 3.1549 1.1552 92.433 7e-3 97.779-0.36523 1.7004-0.59774-3.9949-0.51669-12.656zm-6.7711-9.6541c0-13.148 0.13186-18.527 0.29302-11.953 0.16116 6.5742 0.16116 17.332 0 23.906-0.16116 6.5742-0.29302 1.1953-0.29302-11.953zm-18.206 19.453c-7e-3 -1.9336 0.14741-3.5156 0.34511-3.5156 0.81243 0 1.1745 4.6575 0.4508 5.7988-0.49819 0.78562-0.78676-0.0422-0.79591-2.2832zm7.997 0.46875c0.39156-0.90234 0.90856-3.1172 1.1489-4.9219s0.81285-3.7512 1.2722-4.3255c0.96814-1.2104 0.85182-22.644-0.13425-24.737-0.36431-0.77344-0.9097-3.0143-1.212-4.9797l-0.5496-3.5734 2.1785 3.2102c2.2149 3.2638 2.6378 37.218 0.46359 37.218-0.40695 0-1.0077 0.84375-1.335 1.875-0.32731 1.0312-1.0337 1.875-1.5697 1.875-0.57442 0-0.6823-0.67368-0.26272-1.6406zm13.315-46.641c-0.38775-26.812-0.89246-51.281-1.1216-54.375-0.2291-3.0938 0.19525-0.77344 0.94301 5.1562 1.0501 8.3274 1.3054 20.703 1.1216 54.375l-0.23799 43.594zm-18.277 41.25c0.0104-2.0625 0.2024-2.7959 0.42664-1.6297s0.21572 2.8537-0.0189 3.75c-0.23465 0.89633-0.41813-0.0579-0.40772-2.1203zm-0.34734-11.898c-0.10006-3.6441-0.17244-3.7643-0.7391-1.2272-0.61418 2.7498-0.64198 2.7621-1.2472 0.55156-0.34046-1.2435-0.19231-3.0583 0.32922-4.0327 0.52153-0.97449 0.78612-2.6992 0.58798-3.8328-0.41769-2.3896-2.5086 1.6162-2.9621 5.6749-0.34241 3.0644-1.4829 3.784-1.4829 0.93559 0-1.3322 0.80917-4.31 1.7982-6.6172 1.4614-3.4094 1.6309-4.9394 0.90498-8.1702-1.2525-5.5744-0.28957-5.7894 1.3931-0.31119l1.3982 4.5521 0.0652-4.0397c0.0359-2.2218 0.4481-3.8031 0.91599-3.5139 0.46788 0.28917 0.85069 5.5868 0.85069 11.772 0 10.36-1.5595 17.467-1.8123 8.2585zm4.9418-11.48c0.6023-1.3219 1.4641-2.4035 1.9151-2.4035 0.95929 0-0.69471 3.3759-2.0706 4.2263-0.53667 0.33169-0.46998-0.44994 0.15553-1.8228zm-3.8649-19.867c-0.0179-3.0246 0.46199-5.2142 1.2943-5.9049 2.0115-1.6694 2.9459 0.61618 1.0902 2.6667-0.83638 0.92419-1.2643 2.3485-0.95088 3.1652 0.31339 0.8167 0.12545 2.2488-0.41764 3.1825-0.78563 1.3506-0.99327 0.71508-1.016-3.1095zm-6.91-2.84c-0.34375-0.34375-0.61218-1.293-0.59649-2.1094 0.0234-1.219 0.20635-1.1785 1.0234 0.22657 1.0095 1.736 0.71682 3.0266-0.42694 1.8828zm20.993-25.672c-0.66612-12.401-0.95112-22.807-0.63334-23.125 0.31777-0.31777 0.65691 1.2855 0.75364 3.5628 0.0967 2.2774 0.25261 5.6172 0.3464 7.4219 1.0578 20.354 1.5485 34.688 1.1876 34.688-0.24375 0-0.98819-10.146-1.6543-22.547zm-21.552 20.024c-0.0362-1.1297 0.35597-2.3148 0.8716-2.6335 1.1089-0.68531 1.1089 0.23205 0 2.8125-0.7768 1.8077-0.80808 1.8013-0.8716-0.17904zm7.0918-3.4722c-0.41113-1.5961-0.29798-3.1148 0.27475-3.6875 1.4989-1.4989 1.8658-0.46705 1.1116 3.1263l-0.68734 3.2749-0.69903-2.7137zm-3.72-14.32c-1.2648-1.2648-0.57303-3.125 1.1622-3.125 1.3257 0 1.6606 0.48423 1.2969 1.875-0.50264 1.9221-1.3542 2.3549-2.4591 1.25zm-1.971-7.5377c-0.50876-1.3361-0.40108-1.4438 0.52481-0.52481 0.64071 0.63594 0.92876 1.3924 0.64011 1.6811-0.28865 0.28864-0.81286-0.23167-1.1649-1.1562zm2.3646-1.9982c-0.64379-1.2029-0.98554-2.3722-0.75942-2.5983 0.73599-0.73599 2.7419 2.3496 2.3303 3.5846-0.2533 0.75987-0.83019 0.39766-1.5708-0.98627zm14.129-3.9016c0-1.2891 0.2128-1.8164 0.47287-1.1719 0.26007 0.64454 0.26007 1.6992 0 2.3438-0.26007 0.64454-0.47287 0.11719-0.47287-1.1719zm-16.593-0.99987c-0.33987-0.54993-0.41689-1.2009-0.17114-1.4467 0.24574-0.24574 0.69662 0.2042 1.002 0.99988 0.63392 1.652 0.0937 1.9426-0.83081 0.44681zm-4.1062-16.422c0.045-1.0921 0.26713-1.3143 0.5664-0.56641 0.27081 0.67675 0.23751 1.4854-0.074 1.7969-0.31152 0.31152-0.5331-0.2422-0.4924-1.2305zm19.297-12.344c-1.087-10.491-1.601-27.915-0.76744-26.016 0.71127 1.6208 2.1895 31.406 1.5587 31.406-0.12797 0-0.48401-2.4258-0.79122-5.3906zm-175.69 130.36c-1.1531-0.22253-3.2624-0.2283-4.6875-0.0128-1.4251 0.21548-0.48165 0.39755 2.0965 0.40459 2.5781 7e-3 3.7441-0.16927 2.591-0.3918zm-59.442-1.911c3.8551 2.2773 4.1724 2.1058 3.4829-1.8822-0.4685-2.7096-0.36734-3.1932 0.44127-2.1094 0.79798 1.0696 0.91801 0.17183 0.50138-3.75-0.30127-2.8359-0.82341-10.129-1.1603-16.207-0.3369-6.0778-0.96874-11.271-1.4041-11.54-0.43535-0.26906-0.83361-1.4135-0.885-2.5433-0.0885-1.9461-0.12564-1.9556-0.7063-0.17904-0.33707 1.0312-1.3762 3.2764-2.3092 4.9892-1.0933 2.0072-1.3875 3.5069-0.82768 4.2188 0.75709 0.96265 1.4338 6.0688 2.4449 18.448 0.14741 1.8047 0.57178 4.2305 0.94306 5.3906 0.38765 1.2113 0.2841 2.1094-0.2432 2.1094-0.97879 0-1.5956-3.2056-2.5683-13.348-0.33319-3.4742-0.92409-6.12-1.3131-5.8796-0.38902 0.24044-0.3588 2.2392 0.0671 4.4417 1.1213 5.7978 1.0696 12.817-0.0814 11.036-0.49983-0.77344-0.94233-3.3047-0.98333-5.625-0.12533-7.093-2.2463-15.43-4.0124-15.772-1.65-0.31923-2.2247 1.3287-0.65062 1.8656 0.50389 0.17187 1.1259 4.1094 1.3823 8.75 0.46711 8.4555-0.25709 6.994-1.7847-3.6016-0.91017-6.313-1.9058-4.5894-1.7055 2.9526 0.16511 6.2167-1.2732 4.7866-1.8023-1.792-0.14841-1.8451-0.60793-2.3333-1.8824-2-2.3121 0.60464-2.1728 2.06 1.2518 13.072 3.196 10.277 4.1187 11.227 8.5042 8.7519 2.304-1.3002 2.7884-1.2816 5.3009 0.2025zm-9.9976-2.5853c0.01913-1.5469 0.22922-2.0662 0.46691-1.154 0.23769 0.91215 0.22207 2.1778-0.03469 2.8125-0.25681 0.63471-0.45128-0.1116-0.43218-1.6585zm-0.9375-5.625c0.01913-1.5469 0.22922-2.0662 0.46691-1.154 0.23769 0.91215 0.22207 2.1778-0.03469 2.8125-0.25681 0.63471-0.45128-0.1116-0.43218-1.6585zm13.016-3.8281c0.045-1.0921 0.26713-1.3143 0.5664-0.56641 0.27081 0.67675 0.23751 1.4854-0.074 1.7969-0.31153 0.31152-0.5331-0.2422-0.4924-1.2305zm-1.2222-12.674c-0.37371-3.92-0.94619-7.8224-1.2722-8.6719-0.32599-0.84951-0.14481-1.5446 0.40262-1.5446 1.3895 0 2.1851 5.0656 1.8404 11.719l-0.29139 5.625zm63.999 21.678c11.324-7.4392 17.802-26.324 11.569-33.731-7.2075-8.5657-34.631-9.1381-39.685-0.82834-9.8666 16.224 13.083 44.434 28.116 34.559zm-6.9217-20.34c-0.34847-0.34847 0.27595-1.6017 1.3876-2.785 3.3514-3.5674 0.68608-4.9738-7.8634-4.1492-1.0441 0.10069-0.85192 3.6152 0.23437 4.2866 1.3801 0.85297 1.1403 2.3438-0.37703 2.3438-1.001 0-3.373-4.3367-3.373-6.1667 0-2.8383 11.407-4.5511 13.875-2.0833 1.699 1.699 1.3529 4.8394-0.78652 7.1357-2.1243 2.2802-2.2003 2.315-3.097 1.4182zm197.1-8.75c0.50752-7.9922 1.5463-19.383 2.3084-25.312 0.76211-5.9297 1.525-19.2 1.6953-29.489l0.30968-18.708-3.0155-0.62016c-3.9241-0.80704-3.7496-1.3805-2.7913 9.1692 0.51684 5.6897 0.43863 21.12-0.2057 40.586-1.586 47.915-0.64927 61.354 1.699 24.375zm-232.76 7.4452c-0.32307-4.0201-0.79011-7.8672-1.0379-8.5491-2.5366-6.9816-6.4366-43.893-7.0649-66.865l-0.69227-25.312 0.32564 32.344c0.25927 25.751 0.70647 35.115 2.194 45.938 1.718 12.5 4.4763 31.699 4.7141 32.812 0.76823 3.5962 2.0171-4.6963 1.5613-10.367zm137.8-4.3365c-2.7843-22.315-4.484-55.2-4.4384-85.874 0.0611-41.158-1.1886-39.164-3.1715 5.0594-0.22227 4.9571-0.83741 10.153-1.367 11.545-0.52954 1.3928-0.98994 7.0401-1.0231 12.55-0.0332 5.5094-0.60229 19.298-1.2648 30.642-0.66247 11.344-1.1366 20.721-1.0537 20.839 2.093 2.9725 4.7113 0.18576 4.6052-4.9017-0.33097-15.882-0.36912-58.889-0.0525-59.205 0.20053-0.20053 0.59789 14.937 0.88302 33.639 0.51253 33.618 0.4963 34.021-1.4293 35.535-1.9265 1.5143-1.9154 1.5381 1.0133 2.1814 3.3871 0.74393 6.734 4.4754 6.734 7.5078 0 2.0762 0.90269 3.6584 1.657 2.9041 0.22381-0.22383-0.26767-5.8137-1.0922-12.422zm-172.07 2.1303c1.6008-1.7592 3.8848-3.4431 5.0756-3.7419 1.1907-0.29886 2.4324-1.2402 2.7592-2.0919 0.75736-1.9737-0.23594-3.0421-1.2711-1.3673-1.9315 3.1252-3.0836-0.20228-2.5282-7.302 0.30728-3.9282 0.81968-13.259 1.1386-20.736 0.52552-12.318 5.9255-49.902 7.3785-51.355 0.86225-0.86225 0.60327 1.614-1.4001 13.387-1.0529 6.1875-2.1188 16.102-2.3685 22.031-0.41653 9.8895-1.3325 21.012-2.8759 34.922-0.58282 5.2526-0.53958 5.3906 1.6885 5.3906 2.0594 0 2.2631-0.34933 2.05-3.5156-0.13019-1.9336-0.0135-2.7722 0.2592-1.8635 0.27276 0.90866 0.87714 1.4165 1.3431 1.1285 0.46594-0.28797 1.7587-0.0357 2.8729 0.56054 2.0193 1.0807 2.0233 1.0625 1.2642-5.816-1.0971-9.9419-1.2215-28.709-0.2695-40.65 0.74228-9.3104 1.1774-13.622 3.1937-31.641 0.36926-3.3001 0.2475-5.3906-0.31399-5.3906-0.50444 0-1.1701 2.6367-1.4793 5.8594-0.30915 3.2227-1.2256 10.5-2.0365 16.172-1.4264 9.9764-2.7626 24.49-4.2293 45.938-0.51596 7.5448-0.58835 5.5319-0.26968-7.5 0.43718-17.878 0.81521-22.431 3.5691-42.987 1.5278-11.404 1.4237-15.049-0.31181-10.919-0.54176 1.2891-1.0182 1.9219-1.0588 1.4062-0.0406-0.51563-0.47153-0.30837-0.95766 0.46056-0.48614 0.76892-1.5632 1.4017-2.3935 1.4062-1.0319 6e-3 -2.4624 2.5391-4.5206 8.0061-4.8298 12.829-10.923 20.171-10.923 13.161 0-1.0671 0.42188-1.9402 0.9375-1.9402s0.9375 0.51562 0.9375 1.1458c0 2.4794 3.6504-2.8582 5.9129-8.6458 3.547-9.0735 3.6133-8.6969-1.5547-8.8364-3.3467-0.0903-4.9068-0.611-5.9063-1.9713-5.3457-7.2756-10.774 15.973-5.7712 24.717 2.8716 5.019 3.006 5.7209 3.3074 17.269 0.21362 8.186 1.0408 15.399 2.5852 22.542 1.768 8.1774 2.0787 11.334 1.4025 14.251-2.4917 10.749-0.50252 14.305 4.7643 8.5171zm-1.6036-19.731c0.28853-0.7519 1.6182-9.2949 2.9548-18.984 3.7121-26.911 6.958-45.581 8.1106-46.651 0.74989-0.69643 0.8891-0.3119 0.49879 1.3777-0.99197 4.294-4.3081 25.569-6.7785 43.488-2.3439 17.001-3.4385 22.137-4.718 22.137-0.32574 0-0.35618-0.6152-0.06765-1.3671zm150.45 16.633c-0.76611-0.9231-0.46981-1.2033 1.2724-1.2033 2.4871 0 4.521-1.5605 4.521-3.4688 0-0.67031-0.89823-1.2188-1.9961-1.2188-1.925 0-1.9741-0.27513-1.378-7.7344 1.7304-21.655 5.893-64.202 7.0396-71.953 1.0986-7.427 1.1592-17.343 0.083-13.594-1.0309 3.5913-3.3059 18.057-4.6444 29.531-0.57142 4.8984-1.6663 13.969-2.4331 20.156-0.76679 6.1875-2.014 17.337-2.7716 24.776-0.75757 7.4395-1.8309 16.027-2.3852 19.084-0.89602 4.9412-0.81927 5.7392 0.69215 7.1962 1.9152 1.8463 3.6836 0.45656 2.0002-1.5718zm32.597 1.8436c-4.8511-15.583-9.8831-64.742-10.076-98.438-0.0628-10.957-0.43916-19.922-0.8364-19.922-2.4653 0-2.1248 60.57 0.48484 86.25 0.75977 7.4766 1.3939 15.942 1.4093 18.812 0.0255 4.7696 0.3099 5.4678 3.3091 8.1231 1.8047 1.5978 3.2812 3.7848 3.2812 4.86 0 1.1501 0.60496 1.955 1.4694 1.955 0.96902 0 1.2955-0.5587 0.95868-1.6406zm-154.42-6.5625c0.0236-2.4492-0.67933-10.57-1.562-18.047-1.2268-10.391-1.605-21.366-1.6054-46.585-2.8e-4 -20.078-0.32548-32.187-0.83084-30.938-1.9015 4.7029-1.2121 95.888 0.74131 98.048 2.6293 2.9067 3.2093 2.4653 3.257-2.4787zm-6.2258-8.9062c-0.82079-15.118-0.77258-67.882 0.0696-76.152 0.41893-4.1142 0.45301-7.1718 0.0757-6.7945-0.75993 0.75993-0.71802 0.34808-2.3103 22.706-0.74249 10.426-0.91847 24.282-0.50921 40.094 0.42844 16.552 0.30869 24.754-0.38021 26.041-1.2113 2.2633-0.48727 3.7152 1.8527 3.7152 1.5948 0 1.6845-0.71745 1.2017-9.6094zm137.99 0c0.31112-3.7383 0.98566-18.188 1.499-32.109 0.51331-13.922 1.3517-28.477 1.8631-32.344 0.51139-3.8672 1.143-12.458 1.4036-19.09 0.26059-6.6324 0.70509-12.433 0.98779-12.891 0.80686-1.3055-1.2701-0.97214-2.1194 0.3402-0.41715 0.64454-0.79333 3.4922-0.83593 6.3281s-0.75428 9.375-1.5815 14.531c-2.9822 18.589-7.5955 79.076-6.1627 80.802 2.7227 3.2806 4.3634 1.4337 4.9461-5.5678zm-106.92-3.5023c-0.52984-3.3134-0.35367-3.8269 1.5554-4.5331 1.1841-0.43805 1.7277-1.0593 1.208-1.3805-2.9463-1.8209-5.6862 3.0373-4.0863 7.2455 1.356 3.5665 2.0021 2.916 1.3228-1.3319zm24.013-0.95082c0-2.7092-0.16355-2.818-4.4531-2.9625-3.6224-0.12204-3.841-0.21297-1.1719-0.48744 11.319-1.1639 10.433-3.6712-1.1714-3.3151-11.296 0.34665-20.186 3.0151-10.046 3.0151 2.5227 0 2.7354 0.20568 1.875 1.8134-2.261 4.2248-1.4884 4.7491 6.9983 4.7491h7.9688zm26.797-32.786c0.42233-1.1858 0.6076-1.1921 1.3167-0.0448 0.45386 0.73437 0.61928 1.6684 0.36758 2.0757-0.25169 0.40726-0.0258 1.4821 0.5021 2.3885 1.3686 2.3502 1.3503-3.2281-0.0285-8.704-1.0259-4.0741-0.95677-4.2986 3.7264-12.108 7.3272-12.218 12.393-29.384 13.887-47.061 0.85193-10.078 2.3381-9.1045 2.5921 1.6984 0.0372 1.5836 1.0456 3.268 2.769 4.6252l2.7104 2.1345-0.55886-4.1564c-1.1439-8.508-2.7077-31.522-2.261-33.276 0.25456-0.99972 0.5248 0.29171 0.60053 2.8698 0.0757 2.5781 0.52156 7.6406 0.99073 11.25 0.46916 3.6094 1.1317 10.148 1.4724 14.531 0.68211 8.7761 0.86278 9.375 2.8283 9.375 2.3632 0 1.5666-18.828-1.0873-25.701-0.45799-1.1861-0.34958-1.5822 0.31978-1.1686 1.1982 0.74054 2.9344 10.676 3.4352 19.659 0.40773 7.3136 0.41028 7.3189 3.1773 6.5953 2.2988-0.60114 2.562-2.2903 2.1689-13.916-0.36563-10.812-4.5631-22.244-4.9053-13.359-0.1101 2.8589-0.15575 2.8132-0.73989-0.7399-0.3424-2.0827-1.5552-4.7194-2.6952-5.8594-1.14-1.13-2.07-2.91-2.07-3.94 0-2.3347-2.532-2.4368-5.2922-0.21353-1.9806 1.5954-1.992 1.7752-0.75866 11.932 0.68873 5.6719 1.2772 10.629 1.3078 11.016 0.0306 0.38672-0.88773-0.24015-2.0406-1.393-1.8882-1.8882-2.0975-3.0262-2.1094-11.468-0.0114-8.124-0.22869-9.4136-1.6319-9.6871-2.6933-0.52484-6.1481 3.8111-6.6672 8.3678-0.25701 2.2562-1.1417 10.008-1.966 17.227-0.82428 7.2188-1.4915 14.616-1.4828 16.439 8e-3 1.8226-0.86358 5.816-1.9385 8.8744s-2.5474 8.9335-3.2722 13.056c-0.72478 4.1223-1.9138 9.621-2.6424 12.219-2.1912 7.8149-3.486 17.249-2.8739 20.938 0.97722 5.889 1.7722 6.5023 2.0731 1.599 0.15822-2.5781 0.50883-5.3085 0.77914-6.0675zm9.8636-42.876c-1.1491-1.2518-1.0349-1.3424 0.9375-0.74464 3.0207 0.91544 3.999 1.9223 2.0003 2.0587-0.8962 0.0611-2.2182-0.53019-2.9378-1.3141zm99.509 39.569c-0.48081-5.99 0.76137-8.4721 2.1113-4.2188 0.71292 2.2462 2.3438 2.4969 2.3438 0.3602 0-0.83314-0.71558-3.5295-1.5902-5.992l-1.5902-4.4772 5.0902-10.117c7.1525-14.215 6.8382-25.118-0.64127-22.248-4.581 1.7579-10.446 43.006-7.2857 51.242 1.2926 3.3684 2.0261 1.2321 1.562-4.5492zm-223.77-9.3e-4c-1.0148-2.4288-1.8837-3.3207-2.8674-2.9432-1.0896 0.41813-1.4114-0.19966-1.4114-2.7102 0-3.7721-1.2898-4.1284-4.3927-1.2134-2.7645 2.5971-2.7298 3.4201 0.19076 4.5305 1.2983 0.49362 2.7644 1.9597 3.258 3.258 0.49362 1.2983 1.3166 2.3606 1.8288 2.3606 0.51221 0 0.68845-0.63281 0.39165-1.4062-0.78932-2.0569 1.3249-1.7188 2.6644 0.42611 1.7689 2.8324 1.9545 1.5672 0.33784-2.302zm195.98-7.2647c-0.32053-1.1602-1.2039-6.3281-1.9631-11.484-3.9982-27.155-4.3372-28.804-5.6503-27.491-0.55377 0.55377 1.2772 27.916 1.9398 28.988 0.24384 0.39455 0.0416 0.96561-0.44928 1.269-1.0407 0.64318-1.6527-3.6879-2.432-17.211-0.65566-11.378-1.279-15.086-2.536-15.086-0.558 0-0.70656 3.3431-0.38536 8.6719 0.28751 4.7695 0.53794 12.558 0.55652 17.308l0.0337 8.6361 3.9844 4.2424c4.3853 4.6694 7.899 5.7677 6.9015 2.1573zm-203.14-3.1733c3.6227-4.6055 2.4522-7.0097-1.3389-2.7502-1.8043 2.0273-3.2805 4.0312-3.2805 4.4531 0 1.6607 2.7797 0.63595 4.6195-1.703zm1.1692-8.9554c0.86346-1.7081 2.2223-7.5354 3.0196-12.949 1.4929-10.137 2.9833-16.879 4.4561-20.156 1.1613-2.584 0.44318 2.3121-1.9803 13.502-2.6512 12.241-2.5291 15.044 0.40953 9.4035 1.6472-3.1613 2.4008-6.5639 2.8788-12.999 0.35617-4.794 0.99754-9.8279 1.4253-11.186 0.79747-2.5329 0.30248 9.571-0.64235 15.707-0.4802 3.1187-0.436 3.1668 2.3902 2.6016 1.6392-0.32784 2.8795-0.18218 2.8795 0.33817 0 1.5256 2.9923 1.0224 4.32-0.72657 0.80103-1.0552 1.2561-1.2107 1.2752-0.43576 0.02213 0.89441 0.49116 0.95795 1.8202 0.24664 1.1456-0.61308 1.6208-1.6068 1.3195-2.7591-0.25903-0.99052-0.02831-4.4765 0.5128-7.7466 1.7576-10.623 5.6047-30.278 6.2557-31.961 0.351-0.9074 0.2057-1.6406-0.32514-1.6406-1.1769 0-4.2522 10.342-5.7146 19.219-0.59467 3.6094-1.5305 9.3047-2.0797 12.656-0.54917 3.3516-1.4104 6.5156-1.9138 7.0312-0.5986 0.6131-0.72714 0.12649-0.37146-1.4062 0.29913-1.2891 1.3609-7.1953 2.3594-13.125 0.99852-5.9297 2.6514-14.361 3.6732-18.736 1.9992-8.5609 1.624-10.327-2.1945-10.327-3.4064 0-7.0709 5.5184-7.4706 11.25-0.08989 1.2891-0.28766 3.6094-0.4395 5.1562l-0.273 2.81-0.825-2.34c-0.50836-1.4437-0.65445 3.2366-0.38041 12.188 0.35662 11.648 0.1735 14.996-0.92304 16.875-1.6334 2.7986-1.8611 0.84463-0.37919-3.2536 1.2003-3.3194-0.56609-16.847-2.0778-15.912-1.0934 0.67573-1.106-5.6059-0.01882-9.3611 1.2585-4.347 3.4969-11.092 4.351-13.111 2.015-4.7632-1.9258 0.27833-4.2502 5.4374-9.9636 22.114-20.258 73.863-11.083 55.713zm18.706-33.106c-0.15525-7.0591 2.814-22.222 4.0998-20.937 0.22942 0.2294-0.0075 1.9565-0.52743 3.838-0.5195 1.8815-1.5219 7.1312-2.2275 11.666-0.70565 4.5349-1.3108 6.9796-1.3449 5.4327zm-2.496-4.21c0.59678-9.3298 4.4094-26.407 5.6244-25.192 0.2095 0.2095-0.46681 3.5376-1.5029 7.3956-1.0361 3.8581-2.475 10.812-3.1976 15.452-1.1828 7.5966-1.2749 7.8302-0.92394 2.3438zm274.46 30.629c0.91447-1.4376 0.92448-4.3788 0.0149-4.3788-0.39159 0-1.2389 0.84375-1.883 1.875-0.64402 1.0312-2.0111 1.875-3.038 1.875-1.8906 0-2.4256 1.004-1.1922 2.2374 0.9053 0.90532 5.2237-0.2338 6.0982-1.6086zm-2.4988-5.2263c-1.0217-1.6532-3.6243-1.2538-2.9684 0.45547 0.31298 0.8156 0.56905 1.9607 0.56905 2.5446 0 0.603 0.65551 0.40621 1.5172-0.45546 0.83446-0.83445 1.2314-1.9795 0.88218-2.5446zm-264.98-0.73c2.3656-1.3842 4.723-2.9669 5.2386-3.517 4.9828-5.3157 12.701-14.591 12.142-14.591-0.38925 0-4.6034 3.7688-9.3649 8.375-6.9802 6.7527-9.3588 8.49-12.279 8.9687-6.5652 1.076-6.5526 1.0694-4.0911 2.1416 3.3378 1.4539 3.5875 1.4127 8.3551-1.3771zm260.12-4.0438c-0.33645-0.7745-0.65785-2.4278-0.71422-3.6739-0.15101-3.338-1.9726-3.3763-4.3122-0.0907-2.557 3.5909-1.9343 6.8222 0.83219 4.3186 1.5428-1.3962 1.8025-1.4106 2.2948-0.12761 0.30534 0.79569 0.14653 1.4467-0.35291 1.4467s-0.90808 0.42545-0.90808 0.94544c0 0.55857 0.7718 0.46345 1.8861-0.23244 1.167-0.72883 1.6529-1.7148 1.2744-2.5861zm7.152 2.1679c0-0.93533-3.9403-4.9823-4.8509-4.9823-1.2991 0-0.86302 2.5896 0.69914 4.1518 1.4864 1.4864 4.1518 2.0196 4.1518 0.83052zm-260.67-8.0359c1.4192-1.1564 3.4761-3.3683 4.5708-4.9151 1.0947-1.5469 3.0599-4.1196 4.3671-5.7172l2.3767-2.9047-2.8888-3.6351c-1.5888-1.9993-3.1323-4.8528-3.43-6.3411-0.66744-3.3372-1.6485-1.8502-2.6049 3.9485-0.47803 2.8982-0.3315 4.3135 0.49979 4.8272 0.73911 0.4568 0.90324 1.3716 0.44172 2.4621-0.65825 1.5553-0.80212 1.4922-1.3874-0.60851-0.53331-1.9144-0.78647-1.3991-1.3818 2.8125-0.95071 6.7252-2.6455 9.6814-1.8812 3.2812 0.30789-2.5781 0.9268-5.7422 1.3754-7.0312 2.9584-8.5016 4.4167-21.562 2.4077-21.562-1.507 0-2.2542 3.0239-5.7135 23.123-3.0358 17.638-3.0918 17.427 3.2485 12.261zm259.73-0.23c0-3.4372-0.80033-3.9224-3.8116-2.3108-2.4386 1.3051-2.2928 3.5848 0.296 4.6253 3.293 1.3236 3.5156 1.177 3.5156-2.3145zm-237.54-2.0127c2.5142-1.3648 6.8915-4.673 9.7274-7.3516s7.1594-6.0971 9.6077-7.5967c4.2949-2.6307 6.4026-5.2412 2.5798-3.1953-1.0312 0.55191-1.875 0.78852-1.875 0.52581s1.3035-1.1517 2.8966-1.9756c2.731-1.4123 2.8079-1.596 1.3442-3.2133-1.7516-1.9356-3.7054-1.9404-5.4222-0.0133-0.93045 1.0443-0.78826 1.0363 0.71261-0.0402 1.8423-1.3214 1.8448-1.3095 0.14629 0.68511-0.95079 1.1165-2.3219 1.8024-3.0469 1.5242-1.6335-0.62685-1.7088-1.8844-0.14628-2.4425 0.64453-0.23019 0.88354-0.72945 0.53115-1.1095-0.3524-0.38002-2.6499 2.1019-5.1055 5.5154-3.616 5.0265-5.4547 6.6552-9.6718 8.567-8.1405 3.6905-7.9973 3.5482-8.3053 8.2448-0.33286 5.0756-0.0372 5.1676 6.027 1.8757zm20.977-20.373c0-0.19467 0.73828-0.93296 1.6406-1.6406 1.4869-1.1661 1.5201-1.133 0.35397 0.35396-1.2247 1.5616-1.9946 2.0583-1.9946 1.2867zm93.083 17.643c3.2029-1.9572 9.517-7.051 14.031-11.319 5.9459-5.6224 9.1106-7.9304 11.484-8.3757 4.6728-0.87663 4.1792-2.649-0.56069-2.0132-3.1658 0.42463-5.0994 1.7178-11.048 7.3891-9.3299 8.8945-18.24 15.231-24.064 17.114l-4.6436 1.5012 4.489-0.36863c3.096-0.25425 6.296-1.4728 10.312-3.9271zm-5.827 6e-3c3.211-1.6422 5.9514-4.845 3.2905-3.8457-4.5712 1.7167-12.743 1.8022-16.997 0.1777-5.034-1.9225-6.0742-1.4639-3.1996 1.4107 4.7698 4.7698 10.498 5.5346 16.906 2.2573zm125.37 0.25873c2.0664-1.1737 6.376-4.4433 9.5768-7.2656 3.2009-2.8224 6.2298-5.3896 6.731-5.705 3.126-1.9672-10.98-24.23-18.947-29.903-3.1405-2.2362-7.3966-0.47181-7.4591 3.0924-0.091 5.1847 8.2028 15.518 15.371 19.15 4.2026 2.1296 4.5139 2.4841 2.7535 3.1354-1.9079 0.70577-5.9306 5.4783-6.0003 7.1189-0.14624 3.4387-4.8023 6.4178-10.03 6.4178-5.0956 0-5.4022 0.13013-5.5234 2.3438-0.2402 4.3874 7.1045 5.2647 13.528 1.6159zm-86.537-6.0687c5.8976-6.2918 11.013-20.879 7.7374-22.065-0.9375-0.33952-0.9375-0.82135 0-2.4092 1.4789-2.5048 1.4973-5.0598 0.0469-6.5102-0.875-0.875-0.78572-1.125 0.40178-1.125 0.83974 0 2.1897 0.66294 3 1.4732 0.81028 0.81026 1.4732 1.0513 1.4732 0.53571 0-1.7535-3.039-3.9847-5.0387-3.6994-1.7423 0.24857-2.0514 1.0554-2.4613 6.4245-0.5324 6.9739-1.695 9.1298-8.2919 15.376-4.7662 4.5126-6.5536 9.6618-4.5787 13.191 1.2372 2.2107 5.079 1.6173 7.7114-1.191zm-35.83-14.12c0.28567-7.579 0.45229-13.833 0.37028-13.898-0.082-0.0649-1.1191-0.41628-2.3046-0.78095l-2.1555-0.66303 0.70161 7.3434c0.38588 4.0389 0.72306 10.77 0.74927 14.958 0.0849 13.569 2.0618 8.3558 2.639-6.9594zm108.81 12.441c-0.0882-1.0152-0.64066-4.5879-1.2276-7.9395-1.5794-9.0182-1.9389-12.836-1.942-20.625-3e-3 -6.3908-0.12854-6.8655-1.3832-5.2114-1.6232 2.1398-1.6635 3.8893-0.43317 18.805 1.3076 15.854 1.6548 17.525 3.5593 17.139 0.92013-0.18672 1.5198-1.0978 1.4268-2.1678zm-221.42 0.10665c3.7023-1.5469 5.4396-3.345 8.227-8.5149 2.2929-4.2528 5.788-9.2438 8.8046-12.573 1.1265-1.2433 1.5209-1.9567 0.87637-1.5853-0.66479 0.38305-1.1719 0.18276-1.1719-0.46288 0-0.70057-0.81097-0.45152-2.1094 0.64779l-2.1094 1.7859 1.7522-2.0722c0.96374-1.1397 2.0817-1.9834 2.4844-1.875 0.40266 0.10845 0.77431-0.11924 0.82587-0.50595 0.34976-2.6232-0.28758-2.5764-3.1875 0.23437-3.553 3.4437-4.5819 2.9116-1.2428-0.6427 1.1211-1.1934 1.5915-2.1698 1.0453-2.1698-1.2475 0-4.2735 4.3986-5.1596 7.5-0.41186 1.4416-0.49781 0.81008-0.2233-1.6406 0.24547-2.1914 0.23605-3.9844-0.0209-3.9844-0.84948 0-3.3049 6.7489-3.3049 9.0838 0 2.1749-3.5852 7.4222-8.2031 12.006-4.2179 4.1868-2.6166 6.9973 2.717 4.7687zm116.17-3.6937c0.03-2.1362 0.266-8.7356 0.52452-14.665 0.42814-9.8208 0.33801-10.651-1.0118-9.3218-2.3014 2.2668-3.3667 29.329-1.1206 28.467 1.0862-0.41682 1.5698-1.7642 1.6079-4.4802zm111.51 4.5416c0-0.26434-0.86372-3.5339-1.9194-7.2656-2.4352-8.6084-4.7772-23.626-4.0002-25.651 0.40903-1.0659 0.1829-1.4113-0.72787-1.1116-2.4353 0.80134-1.874 15.907 1.1076 29.81 0.86282 4.0232 5.5399 7.5845 5.5399 4.2183zm-26.25-1.8631c0-0.875-0.88541-1.4062-2.3438-1.4062-1.4583 0-2.3438 0.53125-2.3438 1.4062 0 0.875 0.88541 1.4062 2.3438 1.4062 1.4583 0 2.3438-0.53125 2.3438-1.4062zm32.64-1.1546c0.25676-1.7977-1.1617-5.7217-8.9868-24.861-1.4319-3.5023-3.574-4.9959-2.6891-1.875 0.25586 0.90235 0.95753 4.1719 1.5593 7.2656 2.945 15.141 9.0554 26.901 10.117 19.47zm-240.66-9.6652c-0.80225-2.0095-0.9279-1.7341-0.97969 2.148-0.0349 2.6109-0.49131 4.4531-1.1034 4.4531-0.72284 0-0.81947-1.3697-0.31415-4.4531 1.0399-6.3454 1.0266-8.9111-0.0482-9.2752-0.55865-0.18925-1.0509 2.7099-1.2182 7.1741-0.22509 6.0086-0.0147 7.4917 1.0625 7.4917 0.73876 0 1.6782 0.94922 2.0876 2.1094 0.58644 1.6617 0.81759 1.1063 1.089-2.6167 0.18953-2.5994-0.0696-5.7634-0.57568-7.0312zm126.26-7.9301c0.46102-5.6719 0.67271-10.511 0.47044-10.754-1.184-1.4217-2.115 3.473-2.1346 11.223-0.0124 4.8984-0.21585 11.227-0.45217 14.062l-0.42966 5.1562 0.85389-4.6875c0.46965-2.5781 1.2311-9.3281 1.6921-15zm4.0217-1.4062c1.1159-7.8105 0.41413-16.875-1.3064-16.875-0.78109-1e-4 -1.0219 2.2641-0.82248 7.7344 0.15508 4.254-0.33182 11.742-1.082 16.641-0.75016 4.8984-1.1169 9.3062-0.81505 9.7949 0.64743 1.0482 2.6095-7.3806 4.0259-17.295zm4.2126 12.192c2.6812-2.7141 6.4004-5.3415 8.8453-6.2487 5.7445-2.1316 5.8136-2.2442 3.5586-5.8057l-1.9836-3.1329-1.0772 2.6354c-1.2008 2.9378-2.9104 1.656-1.9264-1.4443 0.31207-0.98324 0.16797-2.0346-0.32022-2.3363-0.48819-0.30171-0.6914-1.299-0.45156-2.2161 0.72705-2.7803-1.3265-6.6598-4.5731-8.6392-4.6086-2.8099-5.2755-2.4928-4.4273 2.1054 0.40421 2.1914 0.53889 5.25 0.2993 6.7969l-0.43564 2.8125 1.3737-2.8125c1.8732-3.8352 1.9013-1.0127 0.0579 5.8136-2.3755 8.7967-3.8463 13.764-4.5942 15.514-1.2456 2.9159 0.91838 1.7514 5.6544-3.0426zm2.7293-10.082c1.4531-2.9982 2.366-3.8522 2.366-2.2132 0 0.4585-0.86462 1.8296-1.9214 3.0469l-1.9214 2.2132zm69.47 3.75c-0.68-11.94-2.16-18.99-3.99-18.99-1.9865 0-2.4365 5.9487-0.85331 11.28 0.81634 2.7489 1.4842 7.8043 1.4842 11.234 0 6.4972 0.3451 7.4861 2.6124 7.4861 1.1494 0 1.2654-1.7219 0.742-11.016zm-211.48 4.8666c0-1.9856-0.37958-3.102-0.9375-2.7572-0.56618 0.34992-0.9375-0.92777-0.9375-3.2259 0-2.1169-0.45254-3.8053-1.0199-3.8053-1.1526 0-0.43901 6.3198 1.1908 10.547 1.3195 3.4222 1.7041 3.2511 1.7041-0.75845zm171.27-7.6612c-0.2377-0.91216-0.44781-0.39285-0.46691 1.154-0.0191 1.5469 0.17536 2.2932 0.43217 1.6585 0.2568-0.63472 0.27243-1.9004 0.0348-2.8125zm-172.77-6.5306c-1.3653-0.99837-1.4511-1.5774-0.53245-3.5937 0.60234-1.322 1.0952-3.2275 1.0952-4.2345 0-2.0577 0.97929-2.3516 2.562-0.76891 1.3935 1.3935 4.3395 0.23613 3.6923-1.4506-0.53067-1.3829 2.0742-4.2989 3.8403-4.2989 1.0861 0 2.7058-8.1372 1.8-9.043-1.1911-1.1911-7.3258 1.8922-9.2667 4.6574-1.1502 1.6387-2.4229 3.12-2.8283 3.2919-0.40535 0.17188-0.73699 0.88526-0.73699 1.5853 0 2.4079-1.8797 2.4306-2.791 0.0337-1.5521-4.0823-5.3468-3.2743-7.4399 1.5842l-1.7165 3.9844 4.0987 3.9686c2.2543 2.1827 4.0987 4.4433 4.0987 5.0235 0 0.65711 0.88384 0.83308 2.3438 0.46667 2.2398-0.56217 2.351-0.39003 2.5075 3.8827l0.16378 4.471 0.36866-4.1848c0.28071-3.1864-0.0196-4.4687-1.2589-5.3749zm6.4904-18.66c-0.58289-1.519 1.0649-3.146 3.2129-3.1723 1.4898-0.0183 1.5175 2.0775 0.0469 3.5482-1.5324 1.5324-2.5736 1.4124-3.2598-0.37586zm165.32 20.016c-0.26007-0.64453-0.47287-0.11718-0.47287 1.1719s0.2128 1.8164 0.47287 1.1719c0.26007-0.64453 0.26007-1.6992 0-2.3438zm4.0666-1.1719c0-0.77344-0.42188-1.4062-0.9375-1.4062-0.51563 0-0.9375 0.63281-0.9375 1.4062 0 0.77344 0.42187 1.4062 0.9375 1.4062 0.51562 0 0.9375-0.63281 0.9375-1.4062zm-46.582-6.8482c3.0895-3.2247 3.1102-3.9164 0.24305-8.1413-1.2518-1.8447-2.5526-4.613-2.8906-6.1517-0.40787-1.857-1.6126-3.3079-3.5833-4.3154-1.6328-0.83474-4.513-2.8313-6.4003-4.4368-4.977-4.2338-10.332-7.3516-11.136-6.4836-1.7328 1.8698-1.5533 12.471 0.21123 12.471 1.6498 0 2.1653 1.4081 1.841 5.0295-0.14026 1.5662 0.30745 1.6787 4.2985 1.0802 4.3551-0.65309 4.4184-0.62756 2.8205 1.1381-3.4184 3.7772-0.23633 11.099 5.1101 11.758 6.2985 0.77638 7.0183 0.62862 9.4862-1.9474zm-22.81-24.13c0-1.7184 2.8287-1.7893 5.1007-0.128 1.5449 1.1297 1.3821 1.262-1.6958 1.3777-2.4283 0.0913-3.4049-0.26716-3.4049-1.2497zm119.08 22.517c4.1687-2.6316 4.6281-3.796 1.8461-4.679-2.1088-0.6693-4.6772-4.9998-4.6772-7.886 0-2.6175-3.1784-4.2416-4.7038-2.4036-0.63291 0.76261-1.5726 1.3866-2.0882 1.3866-0.51563 0-0.39425-0.65457 0.26971-1.4546 1.0257-1.2359 0.68748-1.883-2.2494-4.3039-8.5883-7.0792-14.623-8.5092-13.284-3.1478 0.25747 1.0312 0.4739 3.7759 0.48094 6.0993 0.0115 3.8113 0.29513 4.3492 2.9008 5.5026 2.0688 0.91576 2.6007 1.5657 1.875 2.2914-1.8878 1.8878-1.0256 2.7604 2.2088 2.2355 3.0204-0.49014 3.2592-0.33665 3.82 2.4555 1.2536 6.2419 1.2697 6.2595 5.6962 6.2595 2.843 0 5.3642-0.75121 7.9056-2.3555zm-21.89-18.9c-1.2654-1.2654-0.5643-2.1875 1.6634-2.1875 2.7366 0 3.928 1.4475 1.8483 2.2455-1.9009 0.72944-2.7381 0.7156-3.5117-0.058zm-34.467 8.2668c-0.93434-6.1035-0.92439-7.8232 0.052-8.9998 1.3159-1.5856-0.98381-2.082-4.102-0.88543-1.8429 0.70719-1.9486 2.2434-0.15436 2.2434 1.2637 0 3.3589 6.9984 3.3589 11.219 0 2.1436 1.0156 4.9525 1.5848 4.3832 0.22862-0.22861-0.10411-3.811-0.73939-7.961zm-172.33-2.247c3.9113-1.8134 9.5011-3.9918 12.422-4.8409 2.9208-0.84909 5.3105-1.7922 5.3105-2.0957 0-0.30355-0.94922-0.27032-2.1094 0.0738-1.1602 0.34414-3.3592 0.85468-4.8867 1.1345-3.7335 0.68397-12.717 4.0512-15.009 5.6256-1.0171 0.69865-2.5991 1.2703-3.5156 1.2703-1.6724 0-2.1867 1.0422-1.0669 2.162 0.32973 0.32973 0.85707 0.45727 1.1719 0.28342 0.3148-0.17385 3.7725-1.7998 7.6838-3.6132zm-12.449-1.5869c-2.6658-4.2687 1.3032-7.5379 10.025-8.2578 8.4044-0.69362 9.0966-0.69278 12.656 0.0152 2.8161 0.56009 3.0155 0.49285 1.4062-0.47429-2.4539-1.4748-15.295-1.3829-19.917 0.14254-4.7766 1.5764-8.3823 10.391-4.2506 10.391 0.96712 0 0.98339-0.37036 0.07988-1.8172zm249.72-2.5469c0.94294-0.85335 1.7144-2.3202 1.7144-3.2596 0-1.7326-4.3118-5.252-5.2658-4.298-0.28589 0.28588 0.3601 0.99068 1.4355 1.5662 2.3944 1.2815 2.551 4.3457 0.28411 5.5589-1.6856 0.90212-8.6413-0.62531-8.6413-1.8976 0-2.0737-19.06-11.121-20.466-9.7145-0.55947 0.55947-0.77003 0.42165 4.5288 2.9642 2.3203 1.1134 6.2675 3.0118 8.7716 4.2188 2.504 1.2069 5.2462 3.1304 6.0938 4.2744 1.9409 2.6198 8.9076 2.9742 11.545 0.58728zm-102.87-2.1161c1.43-2.3137-16.325-12.31-21.725-12.232-2.1791 0.0316-1.7938 0.38509 2.386 2.1892 2.7416 1.1834 5.7873 2.8388 6.7683 3.6787 0.98099 0.83995 3.4553 2.38 5.4986 3.4224 2.0432 1.0424 3.9794 2.3231 4.3026 2.8461 0.73054 1.182 2.0699 1.2283 2.7699 0.0957zm9.8266-2.5525c4.1936-5.3314 0.90976-11.266-5.7403-10.374-2.5348 0.33998-4.9584-0.0658-7.6255-1.2768-7.0433-3.1979-24.066-1.7612-24.066 2.0311 0 0.69148 0.73274 0.46752 1.8865-0.57661 3.2654-2.9551 15.279-3.0607 20.868-0.1834 3.3938 1.7471 5.4386 2.1939 8.4744 1.8517 6.2512-0.7046 9.0933 6.0422 3.6766 8.7276-3.15 1.5616-3.5808 2.2708-1.3796 2.2708 1.0798 0 2.8376-1.1116 3.9063-2.4702zm88.179-2.3798c0.0914-4.0172-10.671-9.3382-18.411-9.103-3.4307 0.10428-3.3739 0.1484 1.1721 0.90906 8.475 1.4181 13.152 3.9826 14.453 7.9247 1.0057 3.0474 2.719 3.213 2.7859 0.26925zm-62.328-2.4157c-0.39215-1.9336-0.76376-4.7074-0.82579-6.1641-0.10271-2.4119-0.35788-2.5994-2.8569-2.0996-3.5847 0.71694-4.1729 1.4003-2.1699 2.5212 0.96025 0.53738 1.6328 2.0215 1.6328 3.603 0 3.9684 0.90535 5.6551 3.0355 5.6551 1.6943 0 1.821-0.37632 1.1844-3.5156zm-78.751-19.453c11.859-0.25318 33.797-0.68594 48.75-0.9617 29.979-0.55286 58.813-1.3449 67.5-1.8541 3.0938-0.18134 8.1211-0.36024 11.172-0.39755 3.0508-0.0373 5.2349-0.37978 4.8537-0.76104-0.38126-0.38126-8.7616-0.69767-18.623-0.70312l-17.93-0.0099-3.5012-6.5625-3.5012-6.5625-8.4715-0.26917-8.4715-0.26917 1.3895 3.9382c2.0574 5.8314 2.8663 6.4439 8.5104 6.4439 5.1961 0 5.8055-0.57059 4.071-3.8116-1.1034-2.0618-3.7191-2.3738-5.4436-0.64933-0.92705 0.92705-1.344 0.87934-2.0481-0.23438-1.5276-2.4162-1.035-2.805 3.5403-2.7939 5.013 0.01211 10.074 6.3728 6.7454 8.4784-3.4247 2.1667-14.949 0.5323-14.949-2.1202 0-0.58579-0.57574-1.7311-1.2794-2.5451-5.52-6.381-2.11-9.406 10.66-9.422l6.0938-8e-3 3.8094 7.2633 3.8094 7.2633 7.831 0.27481c10.448 0.36664 11.159 0.0028 7.3294-3.7474-1.7004-1.6656-2.9862-3.3586-2.8573-3.7622 0.12891-0.40368-0.34678-0.73396-1.0571-0.73396-0.7103 0-1.8166-0.63281-2.4585-1.4062-1.3188-1.5891-8.4375-1.9567-8.4375-0.43577 0 1.727 2.9904 5.592 4.3266 5.592 1.9761 0 1.5488-1.5908-0.57657-2.1466-2.4684-0.6455-2.391-2.2507 0.1474-3.0564 2.0764-0.65901 5.4106 2.377 5.4568 4.9687 0.0391 2.1991-7.0667 1.4353-8.7219-0.9375-0.80928-1.1602-1.4936-1.6627-1.5206-1.1167-0.1767 3.5673 4.8442 5.1613 12.506 3.9705 0.97576-0.15164 1.9601 0.25162 2.1875 0.89616 0.30483 0.8641-1.2691 1.1692-5.9928 1.1618l-6.4062-0.01011-3.9022-6.3062c-4.56-7.389-4.49-7.737 1.68-7.737 3.2539 0 4.4867-0.32495 4.0309-1.0625-0.46594-0.7539-4.0898-0.88609-12.477-0.45515-6.5013 0.33403-21.946 0.81802-34.321 1.0755-72.974 1.5185-94.176 2.4801-91.477 4.1485 0.76032 0.4699 1.0247 1.4607 0.65017 2.4367-0.59143 1.5412-0.71323 1.5325-1.935-0.13828-0.71708-0.98068-1.5994-1.4874-1.9608-1.126-0.36135 0.36136 0.0825 1.3965 0.98641 2.3004 1.0544 1.0544 1.2624 1.7704 0.58036 1.9978-0.58468 0.19489-1.0631 0.93558-1.0631 1.646 0 0.71038-0.88943 2.1202-1.9765 3.133s-1.802 2.3649-1.5887 3.0048c0.36527 1.0958 7.2216-8.9607 8.5273-12.508 0.51424-1.3968 1.8623-1.6406 9.0709-1.6406 9.682 0 9.4723-0.30112 5.6544 8.119-1.5469 3.4116-2.8125 6.4493-2.8125 6.7505 0 1.5804 3.4633-4.7451 5.2948-9.6706 1.2285-3.3039 2.1278-4.7826 2.1563-3.5456 0.0268 1.1672-0.32495 2.8547-0.7818 3.75-0.45685 0.89535-1.7708 3.792-2.92 6.4371-2.3545 5.4195-3.8979 5.9721-16.682 5.9721-5.8582 0-6.0447-0.0702-4.5566-1.7144 0.85336-0.94295 1.5516-2.1432 1.5516-2.6672 0-0.52402 0.84375-1.7163 1.875-2.6496 1.0312-0.93327 1.8844-2.1588 1.8958-2.7234 0.0696-3.4256 3.3434-5.3505 8.6118-5.0634l5.2642 0.28685-1.2892 3.7376c-1.5214 4.4107-3.529 6.1062-7.2305 6.1062-3.3836 0-3.2297-2.6521 0.25623-4.4158 2.0772-1.0509 2.1245-1.1831 0.4282-1.1954-1.6258-0.01178-5.124 4.0778-5.124 5.9902 0 1.7906 9.2433 0.42972 10.534-1.5509 5.3808-8.257 4.4678-10.693-3.8351-10.231l-5.6783 0.31555-4.2994 7.3335c-5.0978 8.6955-4.5421 8.4199-17.188 8.5238-5.5008 0.0452-12.111 0.43866-14.689 0.87443-4.5024 0.761 19.666 0.5933 70.312-0.4879zm-19.57-4.4159c0.88561-1.6962 2.3328-5.4043 3.216-8.2403l1.6058-5.1562 7.1398-0.27381c8.4194-0.32289 8.5279-0.10195 4.9663 10.118l-2.1237 6.0938-8.2072 0.27151-8.2072 0.2715zm12.649-2.505c2.0018-2.0018 3.6397-3.9392 3.6397-4.3053 0-1.2512-3.4998-5.1177-4.0943-4.5232-1.1166 1.1166-0.59448 4.0891 0.81305 4.6292 2.0177 0.77426 1.7343 2.214-0.43577 2.214-1.0131 0-2.2936 0.84375-2.8455 1.875-0.55191 1.0312-1.4389 1.875-1.9712 1.875-0.54106 0-0.70533-0.82664-0.37259-1.875 0.42232-1.3306 0.16847-1.875-0.87432-1.875-2.2798 0-1.7313-1.606 0.7623-2.2319 1.9889-0.49918 3.9907-4.0457 2.8995-5.1369-1.7497-1.7497-6.7765 6.608-5.8298 9.6927 1.3475 4.3905 3.6745 4.2957 8.3088-0.33862zm3.8514 4.5772c0.38385-1.883 3.5481-12.122 4.5632-14.766 0.7689-2.0025 1.3096-2.1094 10.674-2.1094h9.8638l-0.0103 3.9844c-6e-3 2.1914-0.27181 5.5664-0.59142 7.5l-0.58109 3.5156h-8.3148c-4.5732 0-8.3148-0.26746-8.3148-0.59436 0-5.9173 5.0731-10.272 9.8367-8.4443 1.8326 0.70325 1.8382 3.4137 7e-3 3.4137-0.77344 0-1.4062-0.42188-1.4062-0.9375 0-1.3056-3.1377-1.1748-4.5 0.1875-2.9851 2.9851-1.353 4.5 4.848 4.5h5.973l0.62589-4.7182c0.83059-6.2646 0.54725-6.5318-6.9259-6.5318-8.6469 0-9.0055 0.22225-11.253 6.9756-1.8038 5.4203-5.1993 11.483-4.4943 8.0244zm3.5521-0.23437c0.10593-8.9912 4.3184-13.663 12.408-13.762l5.3906-0.06589v9.375h-4.6875c-3.4993 0-4.6875-0.34936-4.6875-1.3782 0-1.0043 0.95383-1.3222 3.5156-1.1719 3.2134 0.18861 3.5415-0.0195 3.817-2.4206l0.30136-2.6269-5.4576 0.28316-5.4576 0.28316-1.5655 4.6875c-0.861 2.5781-1.5993 5.0039-1.6406 5.3906-0.0413 0.38672 4.3094 0.70312 9.6683 0.70312 11.262 0 10.882 0.32575 10.882-9.3141v-6.3483l7.1727-0.60632c3.945-0.33347 9.159-0.60632 11.587-0.60632h4.4141l0.95464 6.7969c1.1826 8.4198-0.26072 9.1455-16.445 8.2694-0.86777-0.04697-1.1402-1.3603-0.9375-4.5194l0.28574-4.4531 5.3906-0.28116c5.7493-0.29986 7.7004 2.0352 3.75 4.4879-1.4996 0.93103-1.4794 0.99439 0.23438 0.73687 1.3935-0.2094 1.875-1.0007 1.875-3.0814v-2.7997h-12.188v11.25l5.1562-0.08888c2.8359-0.04894 7.4312-0.15436 10.212-0.23438l5.0554-0.1455-0.59042-5.6488c-0.32472-3.1068-0.85243-6.6928-1.1727-7.9688-0.74199-2.9563 1.2342-3.1341 2.341-0.21056 0.43922 1.1602 1.1044 5.168 1.4782 8.9062l0.67959 6.7969h-26.44l0.0143-5.8594c0.0205-8.3615 0.36264-8.6719 9.5596-8.6719h7.7698v9.375h-4.6094c-5.1884 0-6.8192-1.7876-2.9668-3.2523 3.2014-1.2172 3.0598-1.904-0.39254-1.904-2.5893 0-2.8125 0.26042-2.8125 3.2812v3.2812h13.387l-0.54596-5.2898c-0.722-6.9955-1.0489-7.2105-10.232-6.7285-10.039 0.52689-10.11 0.58158-10.11 7.7879 0 8.565-0.54058 8.9179-13.661 8.9179-7.9538 0-10.711-0.30193-10.7-1.1719zm54.009-0.5152c-1.0576-1.7113-2.7806-13.937-2.1834-15.494 0.75926-1.9786 12.713-2.3384 13.204-0.39742 0.1629 0.64453 1.2714 4.2337 2.4633 7.976s1.9946 6.9605 1.7838 7.1516c-0.97311 0.88203-14.768 1.5718-15.267 0.76343zm9.3843-3.4803c-0.29915-0.77955-0.0633-2.4723 0.52424-3.7617 1.1104-2.4372-3.3307-7.946-6.4059-7.946-2.5672 0-3.6791 7.3365-1.4296 9.4322 1.1163 1.04 2.0296 2.2963 2.0296 2.7918 0 0.49553 1.3108 0.90098 2.9128 0.90098 2.2141 0 2.7823-0.33997 2.3689-1.4174zm-4.3442-1.8173c0-0.74782-0.65201-1.7245-1.4489-2.1705-1.1498-0.64345-1.2513-1.3305-0.49195-3.3278 1.1214-2.9495 2.8784-3.3413 2.8784-0.64198 0 1.3106 0.63494 1.884 2.1094 1.9048 1.9533 0.02761 1.988 0.12197 0.46875 1.2752-0.90234 0.68498-1.6406 1.9372-1.6406 2.7827s-0.42188 1.5373-0.9375 1.5373c-0.51563 0-0.9375-0.61185-0.9375-1.3597zm12.827 4.448c-1.0751-1.7395-5.3267-13.691-5.3267-14.974 0-2.3479 1.7029-0.40688 2.3908 2.725 0.36305 1.6529 1.0281 3.652 1.478 4.4424 0.44984 0.79036 1.2295 2.5972 1.7326 4.0151 0.90571 2.5528 0.99733 2.5781 9.3201 2.5781 9.8406 0 10.147-0.26868 7.4235-6.5063l-2.0713-4.7437h-5.4493c-5.7803 0-6.6256 0.84548-4.1838 4.1849 0.96393 1.3182 1.9694 1.59 4.2188 1.1401 2.2448-0.44895 2.9532-0.25892 2.9532 0.79218 0 4.5743-8.8123 0.98883-10.297-4.1898l-0.8437-2.9418 7.1131 0.27283 7.1131 0.27283 3.1716 5.989c1.7444 3.2939 2.9146 6.2471 2.6005 6.5625-0.92319 0.9271-20.786 1.2813-21.343 0.3806zm-122.75 0.92772c-1.418-0.21481-2.5781-0.78441-2.5781-1.2658 0-1.3994-1.6226-1.0102-2.214 0.53102-0.43171 1.125 0.2513 1.3782 3.4153 1.2658 2.8-0.0995 3.2021-0.25452 1.3768-0.53101zm20.935-9.641c3.1772 0 3.8873 2.9869 1.0965 4.6124-1.465 0.8533-1.4748 0.95863-0.0917 0.98408 1.7139 0.03159 4.0998-5.479 2.8942-6.6847-2.276-2.276-7.563 0.40096-10.212 5.171-3.8558 6.9422-3.7839 7.5305 0.15981 1.3078 2.8846-4.5515 3.8424-5.3906 6.1535-5.3906zm153.67 5.633c0-0.51562-0.42188-0.9375-0.9375-0.9375-0.51563 0-0.9375 0.42188-0.9375 0.9375s0.42187 0.9375 0.9375 0.9375c0.51562 0 0.9375-0.42188 0.9375-0.9375zm-5.625-1.2984c0-0.19851-1.1602-1.1076-2.5781-2.0201l-2.5781-1.6592 1.7859 2.0201c1.5804 1.7876 3.3703 2.6688 3.3703 1.6592zm-160.91-2.92c0.36926-0.96228-0.0548-1.4062-1.3429-1.4062-1.5778 0-1.6869 0.22184-0.67371 1.3706 1.5069 1.7086 1.3756 1.7062 2.0166 0.03566zm137.86-4.6875c-0.55595-2.2151-0.37688-2.3438 3.2634-2.3438 2.1184 0 3.8519-0.31641 3.8522-0.70312 3.2e-4 -0.38672-2.1091-0.55694-4.6875-0.37827-4.8506 0.33612-5.3629 0.88121-3.7176 3.9555 1.3518 2.5258 1.9906 2.263 1.2895-0.53038zm-58.041-7.5892c15.984-0.32245 32.016-0.70048 35.625-0.84007 3.6094-0.13959 10.555-0.30401 15.435-0.36537 7.6636-0.09636 8.6857-0.29185 7.5-1.4344-1.1223-1.0815-3.3401-1.1769-12.154-0.52286-5.9297 0.44-19.219 0.82144-29.531 0.84764-31.124 0.07908-88.98 2.053-90 3.0706-0.62355 0.62207 6.5974 0.75034 21.562 0.38301 12.375-0.30375 35.578-0.8161 51.562-1.1385zm-41.72-63.516c0.60086-1.6267 1.3954-3.5904 1.7657-4.3639 0.92633-1.9348 0.18599-4.8698-1.1187-4.4349-0.58797 0.19599-1.3425 1.6933-1.6767 3.3274-1.3248 6.4774-4.5968 7.2263-4.5968 1.0522 0-2.0321-0.42188-3.6947-0.9375-3.6947-1.681 0-1.1318 10.111 0.6019 11.081 2.4616 1.3776 4.7842 0.22178 5.962-2.967zm-52.867 2.4187c0.57257-0.37882 1.817-2.1653 2.7653-3.97 1.4002-2.6645 1.7953-2.946 2.1021-1.4974 0.20989 0.9909-0.29882 2.1625-1.1444 2.6357-0.83726 0.46855-1.2733 1.2547-0.96903 1.7471 0.30428 0.49235 0.91681 0.67047 1.3612 0.39584 0.44437-0.27463 1.0729-0.07058 1.3968 0.45346 2.1437 3.4686 5.6269-0.28317 6.6034-7.1125 0.75288-5.2656-0.53766-4.8236-2.3346 0.79971-0.6179 1.9336-1.5126 3.5156-1.9882 3.5156-1.1362 0-1.0968-2.0803 0.0989-5.2252 1.1704-3.0783 0.28865-4.3183-1.4144-1.9892-0.84431 1.1547-1.3565 1.3241-1.6193 0.53567-0.6113-1.8339-2.4164-0.12088-3.0862 2.9288-1.0771 4.9039-2.7087 4.5534-2.025-0.43499 0.53585-3.9094 0.43553-4.3301-0.78999-3.313-0.88 0.7351-1.4 0.7971-1.4 0.1676 0-1.8604 1.4861-1.927 48.331-2.1675 80.85-0.415 131.67-1.8874 131.67-3.8147 0-0.57146-3.4471-0.71933-9.1406-0.3921-5.0273 0.28895-23.273 0.74954-40.547 1.0235-17.273 0.274-39.633 0.72056-49.688 0.99236-10.055 0.27179-32.941 0.49825-50.859 0.50324-20.196 0.00562-32.578 0.35135-32.578 0.90959 0 0.49528 0.39627 0.90052 0.88059 0.90052 0.93411 0-1.5023 8.2872-2.8802 9.7969-1.1712 1.2832-1.0202-2.9703 0.1854-5.223 0.54906-1.0259 0.80709-2.3693 0.57339-2.9852-0.58-1.5584-3.44 5.3098-3.44 8.2898 0 4.289 3.9422 2.714 5.4956-2.1957 1.5791-4.9908 2.375-4.603 1.2084 0.58887-0.60723 2.7026-0.54773 3.9606 0.20186 4.2685 1.5608 0.64102 1.8936 0.62648 3.0414-0.13294zm19.632-2.5337c1.58-3.771 1.78-7.6349 0.43-8.4672-0.52058-0.32174-0.94319 0.38327-0.9503 1.5853-0.0208 3.5125-1.0865 6.4858-2.1925 6.1171-0.59042-0.19681-0.92907-2.1113-0.7945-4.4915 0.21888-3.8715 0.13909-4.027-1.1953-2.3286-1.4248 1.8133-1.9931 9.0232-0.80488 10.211 1.6599 1.6599 4.2387 0.43223 5.5166-2.6261zm9.4375 0.42717c1.7612-3.8674 2.3876-8.6337 1.0773-8.1969-0.62668 0.20889-1.3993 1.6507-1.717 3.204s-0.88503 3.3216-1.2608 3.9296c-0.96018 1.5536-2.5951 0.30532-2.0724-1.5823 0.23787-0.85895 0.70534-2.5109 1.0388-3.6711 0.8101-2.8183-0.803-2.6838-2.7096 0.22596-1.3792 2.105-1.3916 2.6669-0.12552 5.6971 1.6319 3.9057 4.0932 4.0736 5.7691 0.39355zm12.01-1.954c0.81-2.033 1.48-4.321 1.48-5.0842 0-2.614-1.5905-1.3874-3.0636 2.3627-0.81018 2.0625-1.9732 3.75-2.5844 3.75-0.73123 0-0.98907-1.2827-0.75377-3.75 0.40979-4.297-1.5173-5.3183-2.3009-1.2193-1.4992 7.8427 4.3792 11.049 7.2236 3.9405zm22.093 3.1012c2.498-2.0227 4.0656-11.077 1.7874-10.324-0.71924 0.23777-1.5186 1.8705-1.7765 3.6284-0.67517 4.6035-3.75 5.0741-3.75 0.57392 0-3.0313-2.0904-5.3771-3.1967-3.5871-0.37738 0.61062 0.63356 6.2047 1.846 10.215 0.50366 1.6659 2.6742 1.4502 5.0897-0.50574zm14.029 0.32535c0.61726-0.74375 1.463-3.3805 1.8795-5.8594l0.75724-4.5071 0.11027 5.0222c0.081 3.6879 0.43205 4.8987 1.3214 4.5574 0.66613-0.25562 1.9728 0.09215 2.9036 0.77281 3.5749 2.614 6.163-0.05143 6.1834-6.368 0.0188-5.8176-2.5408-6.4076-2.9786-0.68658-0.30201 3.946-2.0893 5.2109-2.2649 1.6029-0.26-5.4802-0.17-5.37-4.58-5.37-4.2036 0-4.2188 0.011913-4.2188 3.3107 0 5.5797-3.8372 5.8815-4.1167 0.32374-0.20723-4.1205-2.0825-4.459-2.8234-0.50964-0.66518 3.5457 0.51988 7.659 2.4263 8.4216 2.2808 0.91245 4.2768 0.64987 5.4064-0.71119zm-55.565-1.636c-0.29927-0.74788-0.52142-0.52573-0.5664 0.56641-0.0407 0.98828 0.18086 1.542 0.49239 1.2305 0.31152-0.31152 0.34482-1.1201 0.074-1.7969zm34.173-1.3745c-0.88203-1.5175-1.0096-1.3898-1.0346 1.0346-0.0208 2.0169 0.25161 2.4855 1.0061 1.731 0.74152-0.74151 0.7496-1.5251 0.0285-2.7656zm12.234-1.731-0.52013-3.75-0.6626 3.75c-0.68543 3.8792-0.24207 5.9025 0.99372 4.5348 0.39003-0.43164 0.47509-2.4723 0.18901-4.5348zm34.482 3.3429c1.75-3.256 1.24-9.436-0.77-9.436-1.4051 0-1.7266 0.66985-1.6406 3.4183 0.0618 1.9756-0.38745 3.5912-1.0644 3.828-1.2025 0.42053-1.5404-0.20588-2.5182-4.6682-0.88701-4.0481-3.8918-3.4377-4.615 0.9375-0.99032 5.9915-0.80314 6.9872 1.1944 6.3532 0.98786-0.31353 2.0674-0.13102 2.3991 0.40557 1.0579 1.7116 5.9712 1.1255 7.0218-0.83773zm12.976-2.6039c0.28153-3.8796-0.99431-7.7702-2.5481-7.7702-0.43414 0-0.56911 1.954-0.29992 4.3422 0.6382 5.6621-1.7324 5.3154-2.9623-0.43327-1.4065-6.5738-5.5892-4.2531-5.0803 2.8187 0.21938 3.0489 0.68191 4.0566 1.8661 4.0656 0.86595 0.0066 1.9055 0.34298 2.31 0.74756 2.4194 2.4194 6.4287 0.16787 6.7145-3.7706zm-9.04-0.27c0-1.2891 0.2128-1.8164 0.47287-1.1719 0.26007 0.64453 0.26007 1.6992 0 2.3438-0.26007 0.64453-0.47287 0.11719-0.47287-1.1719zm20.498 2.7728c1.5156-2.832 0.79243-8.7857-1.111-9.1461-1.3165-0.24927-1.4767 0.3149-1.0317 3.6327 0.65516 4.8846-1.5203 4.8149-3.1444-0.10075-1.886-5.7084-5.0047-4.4801-5.0323 1.9819-0.0164 3.8491 0.72649 5.0022 2.3531 3.6522 0.78409-0.65074 1.4966-0.50367 2.3104 0.47688 1.6627 2.0035 4.4487 1.7587 5.6558-0.49688zm14.041-0.19958c1.2891 0.06995 3.2854 0.41057 4.4364 0.75695 3.7785 1.1371 4.881-6.3265 1.4432-9.7699-1.8733-1.8764-2.2062-0.94756-1.0984 3.0647 0.53923 1.953 0.74893 3.7823 0.46599 4.0653-0.86057 0.86058-3.3722-1.7483-3.3722-3.5028 0-3.7484-2.5649-3.95-3.2924-0.25878l-0.69778 3.54-0.89166-2.8125c-0.49042-1.5469-1.0662-3.3666-1.2795-4.0438-0.86916-2.7593-2.1003-0.018257-1.2786 2.8468 0.55953 1.951 0.5218 3.334-0.1081 3.9639-1.1712 1.1712-2.556-0.63693-3.3758-4.4075-0.77117-3.5471-2.1983-3.245-2.2139 0.46875-7e-3 1.6758-0.28443 4.0621-0.61643 5.3028-0.39677 1.4829-0.26141 2.0445 0.39497 1.6388 0.54923-0.33944 1.9868-0.24432 3.1946 0.21137 1.3804 0.52083 2.8923 0.45345 4.071-0.1814 1.0312-0.55547 2.9297-0.95271 4.2188-0.88277zm-107.82 0.24c0-0.51562-0.42188-0.9375-0.9375-0.9375-0.51563 0-0.9375 0.42188-0.9375 0.9375s0.42187 0.9375 0.9375 0.9375c0.51562 0 0.9375-0.42188 0.9375-0.9375zm10.015-1.1133c-0.29927-0.74788-0.52142-0.52573-0.5664 0.56641-0.0407 0.98828 0.18086 1.542 0.49239 1.2305 0.31152-0.31152 0.34482-1.1201 0.074-1.7969zm114.15 1.1961c0.29053-0.47008 2.5788-0.65153 5.0851-0.40321 3.8444 0.3809 4.6246 0.18472 4.9902-1.2547 0.60597-2.386-0.83106-7.3323-2.543-8.7531-2.1072-1.7488-2.7448-0.44904-1.3873 2.8282 1.7611 4.2517 0.43484 4.4942-1.7658 0.32284l-1.9014-3.6041-0.0897 3.75-0.0897 3.75-1.4582-3.5156c-1.9158-4.6188-3.3108-4.4908-2.5552 0.23438 0.42163 2.6368 0.26338 3.75-0.53309 3.75-0.62301 0-1.7956-1.6875-2.6058-3.75-1.7557-4.4695-3.5505-5.0124-2.7121-0.82031 0.32226 1.6113 0.58594 3.9768 0.58594 5.2566 0 1.5603 0.41408 2.168 1.2569 1.8446 0.6913-0.26527 1.8514-0.10593 2.5781 0.35409 1.6933 1.0719 2.4874 1.0746 3.1451 0.01042z"/>
</svg>
